<?xml version="1.0" encoding="UTF-8" standalone="no"?>
<!-- Created with Inkscape (http://www.inkscape.org/) -->

<svg
   xmlns:dc="http://purl.org/dc/elements/1.1/"
   xmlns:cc="http://creativecommons.org/ns#"
   xmlns:rdf="http://www.w3.org/1999/02/22-rdf-syntax-ns#"
   xmlns:svg="http://www.w3.org/2000/svg"
   xmlns="http://www.w3.org/2000/svg"
   xmlns:sodipodi="http://sodipodi.sourceforge.net/DTD/sodipodi-0.dtd"
   xmlns:inkscape="http://www.inkscape.org/namespaces/inkscape"
   width="250"
   height="70"
   viewBox="0 0 66.145835 18.520834"
   version="1.1"
   id="svg978"
   inkscape:version="0.92.5 (2060ec1f9f, 2020-04-08)"
   sodipodi:docname="clippath.svg">
  <defs>
    <clipPath id="frydsvgclip">

      <path
         id="path1564"
      
         d="m 53.373633,283.91108 v -0.0517 h 2.60966 q 0.258382,0.3514 0.666626,0.84749 0.413411,0.49609 0.733805,0.85266 l 2.315104,2.57349 q 0.45992,0.50126 0.713135,0.77514 0.258382,0.27389 0.666626,0.66663 0.03101,-0.35657 0.04134,-0.66663 0.01034,-0.31006 0.01034,-0.58394 v -2.23242 q 0,-1.20406 -0.118855,-1.98955 l -1.255738,-0.1912 v -0.0517 h 3.074748 v 0.0517 l -1.255737,0.20154 q -0.09819,0.72347 -0.09819,1.85002 v 5.66373 h -0.05168 q -0.790649,-1.00252 -1.565796,-1.87585 l -3.162597,-3.52433 q -0.7028,-0.74931 -1.198894,-1.19373 -0.07235,0.7028 -0.07235,1.31258 v 3.27112 q 0,0.65629 0.103353,1.5658 l 1.312582,0.1912 v 0.0517 h -3.141927 v -0.0517 l 1.27124,-0.18087 q 0.06201,-0.37207 0.08785,-1.05937 0.02584,-0.68729 0.02584,-1.22473 v -2.53214 q 0,-0.44959 -0.0155,-0.88884 -0.0155,-0.44441 -0.05684,-0.8785 l -0.687297,-0.50643 z m 1.545125,0.13953 6.242513,6.94014 v -0.48576 l -5.808431,-6.45438 z m -3.519164,4.67672 v 2.02054 l 0.346233,-0.12919 v -1.89135 z m 1.860352,-0.14987 -0.826823,0.19121 q -0.06718,0.37723 -0.10852,0.96635 -0.04134,0.58911 -0.03617,1.0542 -0.594279,0.23254 -0.971517,0.35656 -0.37207,0.12403 -0.894002,0.22221 -0.516764,0.0982 -1.131714,0.0982 -1.018026,0 -1.793172,-0.3204 -0.775147,-0.32039 -1.281576,-0.85783 -0.501261,-0.5426 -0.74414,-1.20406 -0.242879,-0.66146 -0.242879,-1.33325 0,-0.79065 0.268717,-1.50895 0.268717,-0.72347 0.790649,-1.28674 0.521932,-0.56844 1.276408,-0.88884 0.759644,-0.32556 1.715658,-0.32556 0.149861,0 0.232544,0.005 0.08785,0.005 0.217041,0.0103 0.129191,0.005 0.346232,0.0155 0.630452,0.0413 1.193725,0.0413 0.521932,0 0.847494,-0.031 l 0.07235,1.72599 h -0.07235 l -0.330729,-1.15238 q -0.196371,-0.0517 -0.490926,-0.10335 -0.294556,-0.0568 -0.666626,-0.0982 -0.366903,-0.0413 -0.795817,-0.0413 -0.904338,0 -1.570964,0.29456 -0.666626,0.28938 -1.07487,0.78548 -0.403076,0.49092 -0.589111,1.09037 -0.186035,0.59945 -0.186035,1.22473 0,0.70797 0.258382,1.33842 0.26355,0.63045 0.738973,1.11621 0.480591,0.48576 1.116211,0.75965 0.63562,0.26871 1.348755,0.26871 0.186035,0 0.382405,-0.0207 0.196371,-0.0207 0.403076,-0.0517 0.211874,-0.0362 0.480591,-0.0775 0.108521,-0.45992 0.108521,-0.97152 0,-0.70796 -0.108521,-1.11104 l -1.333252,-0.18087 v -0.062 h 3.451986 z m -3.3538,-4.64571 v -0.0413 q -0.346233,-0.031 -0.625285,-0.031 -0.837158,0 -1.545126,0.28938 -0.702799,0.28939 -1.219563,0.81649 -0.511597,0.52193 -0.795817,1.2454 -0.279053,0.71831 -0.279053,1.53996 0,0.96118 0.480591,1.78801 0.480591,0.82165 1.37976,1.30741 0.89917,0.48576 2.118734,0.48576 0.227376,0 0.620117,-0.0465 v -0.0413 q -1.136881,0.005 -1.953369,-0.31006 -0.816487,-0.31523 -1.317749,-0.85783 -0.501261,-0.5426 -0.728637,-1.18856 -0.222209,-0.64595 -0.222209,-1.29191 0,-0.79582 0.253214,-1.46761 0.258383,-0.67179 0.749309,-1.16272 0.490926,-0.49092 1.229899,-0.75964 0.74414,-0.27389 1.674316,-0.27389 z m -7.575768,0.12919 v 7.16236 h 0.361735 v -7.16236 z m 2.330607,7.3639 h -3.906738 v -0.0517 l 1.260905,-0.1912 q 0.08785,-0.64596 0.129191,-1.55546 0.04651,-0.91468 0.04651,-1.78801 v -0.86816 q 0,-1.7725 -0.155029,-2.87838 l -1.281576,-0.18087 v -0.0517 h 3.906738 v 0.0517 l -1.291911,0.18087 q -0.05684,0.50126 -0.08268,0.9095 -0.02584,0.40308 -0.04651,0.98186 -0.02067,0.57361 -0.02067,1.08003 v 1.14205 q 0,0.31523 0.02067,1.03353 0.02584,0.71314 0.06201,1.20923 0.04134,0.49609 0.07751,0.74414 l 1.281575,0.18087 z m -6.20117,-7.5551 H 38.29445 q -0.568441,0 -1.049032,0.22738 -0.48059,0.22737 -0.759643,0.64595 -0.279053,0.41858 -0.279053,0.94568 0,0.65629 0.573609,1.2299 0.253214,0.24288 0.470255,0.40824 0.222209,0.16537 0.666626,0.47026 0.444417,0.29972 0.707967,0.49609 0.268718,0.19121 0.43925,0.36691 0.465088,0.46508 0.465088,1.03869 0,0.39274 -0.217041,0.75965 -0.211874,0.36173 -0.620117,0.59427 -0.403077,0.22738 -0.950847,0.23255 v 0.0568 q 0.630453,0.0207 1.121379,-0.22221 0.496094,-0.24287 0.754476,-0.64078 0.263549,-0.39791 0.263549,-0.82166 0,-0.3669 -0.118855,-0.66662 -0.118856,-0.29973 -0.434082,-0.61495 -0.180868,-0.18087 -0.651123,-0.50127 -0.470256,-0.32556 -0.950847,-0.65112 -0.480591,-0.33073 -0.702799,-0.5426 -0.542603,-0.53744 -0.542603,-1.18339 0,-0.56844 0.490926,-1.05937 0.496094,-0.49092 1.488282,-0.51676 z m -2.526978,5.74642 0.392741,1.27124 q 0.294556,0.13436 0.687297,0.21704 0.397908,0.0827 0.687296,0.0775 0.387573,0 0.707967,-0.13436 0.325562,-0.13436 0.5271,-0.34107 0.206706,-0.2067 0.315226,-0.46509 0.108521,-0.26354 0.108521,-0.51159 0,-0.5116 -0.346233,-0.863 -0.346232,-0.3514 -1.162719,-0.89917 -0.81132,-0.54777 -1.178223,-0.91467 -0.315226,-0.32556 -0.470255,-0.65112 -0.15503,-0.33073 -0.15503,-0.73381 0,-0.44442 0.24288,-0.88367 0.242879,-0.43925 0.749308,-0.72863 0.506429,-0.29456 1.245402,-0.29456 0.335897,0 0.713134,0.0362 0.377238,0.031 0.521932,0.031 0.124024,-0.005 0.232544,-0.005 0.108521,-0.005 0.170533,-0.0103 0.06718,-0.0103 0.139526,-0.0207 l 0.03101,1.76733 h -0.06718 L 39.700053,284.366 q -0.718302,-0.31522 -1.25057,-0.31522 -0.444417,0 -0.800984,0.17053 -0.3514,0.16537 -0.547771,0.45992 -0.19637,0.28939 -0.19637,0.65629 0,0.38241 0.26355,0.7028 0.26355,0.31523 0.718302,0.62012 0.45992,0.30489 0.981852,0.64595 0.5271,0.34107 0.842326,0.65629 0.61495,0.61495 0.61495,1.42111 0,0.45475 -0.237712,0.94051 -0.237711,0.48059 -0.800984,0.81648 -0.563274,0.3359 -1.457276,0.3359 -0.315226,0 -0.769979,-0.0362 -0.449585,-0.0362 -0.661458,-0.0362 -0.09819,0 -0.155029,0.005 -0.05168,0.005 -0.165365,0.0155 -0.113688,0.0103 -0.134359,0.0103 l -0.08268,-1.81901 z m -4.826579,-5.55522 v 7.16236 h 0.356568 v -7.16236 z m -1.570963,-0.14986 v -0.0517 h 5.50354 l 0.129191,1.60713 h -0.08268 l -0.372071,-1.2609 q -0.439249,-0.031 -0.98702,-0.031 -0.997355,0 -1.607137,0.13953 -0.103352,0.83716 -0.103352,1.91203 0,0.67179 0.04134,1.09037 0.816487,0.0465 1.038696,0.0465 0.583944,0 1.204061,-0.0672 l 0.232544,-0.8785 h 0.08785 v 2.20142 h -0.08785 l -0.24288,-0.93018 q -0.449584,-0.0517 -0.992187,-0.0517 -0.682129,0 -1.240234,0.062 -0.06718,0.59945 -0.04134,1.17306 0.01034,0.7338 0.02584,1.2144 0.0155,0.47542 0.05684,0.82165 0.630452,0.1912 1.653646,0.1912 0.589111,0 0.992187,-0.0465 l 0.413412,-1.2454 h 0.07235 l -0.113689,1.61748 h -5.565551 v -0.0517 l 1.235066,-0.18087 q 0.04134,-0.21187 0.07235,-0.64595 0.03617,-0.43409 0.06201,-0.97152 0.02584,-0.5426 0.03617,-0.90434 0.01034,-0.3669 0.01034,-0.64079 v -1.30224 q 0,-0.24805 -0.0155,-0.7028 -0.0155,-0.45992 -0.04651,-0.95085 -0.03101,-0.49092 -0.08785,-0.98185 z m -9.079548,-0.0517 h 4.25297 q 1.188558,0 2.020549,0.34623 0.837158,0.34106 1.317749,0.894 0.485758,0.55294 0.692464,1.20406 0.211873,0.65112 0.211873,1.32292 0,0.81649 -0.273885,1.51928 -0.268717,0.69764 -0.780314,1.2144 -0.506429,0.5116 -1.198893,0.79065 -0.687297,0.27389 -1.51412,0.27389 h -4.759399 v -0.0517 l 1.255737,-0.18087 q 0.08785,-0.43925 0.139527,-1.45211 0.05168,-1.01802 0.05168,-1.5968 v -1.35392 q 0,-1.50378 -0.134359,-2.68718 l -1.281575,-0.1912 z m 2.45463,2.58898 v 3.01791 q 0,0.66662 0.07235,1.35392 0.33073,0.15503 0.749309,0.22738 0.418579,0.0723 0.837158,0.0723 0.578776,0 1.142049,-0.21704 0.563273,-0.22221 1.012858,-0.65112 0.454753,-0.42891 0.728638,-1.09037 0.273885,-0.66663 0.273885,-1.52446 0,-0.89917 -0.289388,-1.55546 -0.289388,-0.66146 -0.800985,-1.08004 -0.506429,-0.42374 -1.16272,-0.62528 -0.65629,-0.20154 -1.37976,-0.20154 -0.583944,0 -1.054199,0.12919 -0.03101,0.19637 -0.06201,0.56328 -0.02584,0.36173 -0.04651,0.85266 -0.02067,0.49092 -0.02067,0.72863 z m -0.888834,-2.38745 v 7.16236 h 0.361735 v -7.16236 z m 1.870687,-0.0775 v 0.0517 q 0.749308,0 1.343587,0.12919 0.599446,0.12919 1.002523,0.3514 0.408243,0.22221 0.702799,0.51676 0.304891,0.30489 0.521932,0.7028 0.222209,0.39791 0.346232,0.88367 0.129191,0.48576 0.129191,1.02836 0,1.20406 -0.516764,2.02055 -0.516764,0.81648 -1.27124,1.19889 -0.754476,0.37724 -1.431438,0.37724 h -0.39274 v 0.0517 h 0.39274 q 1.126547,0 1.948202,-0.49092 0.826823,-0.4961 1.25057,-1.32809 0.423746,-0.83715 0.423746,-1.80867 0,-0.86817 -0.304891,-1.54513 -0.299723,-0.68213 -0.754476,-1.13171 -0.976684,-1.00769 -3.079915,-1.00769 z m -13.854452,-0.1447 h 3.586345 q 0.862996,0 1.348754,0.16019 0.485759,0.15503 0.800985,0.47026 0.26355,0.26355 0.403076,0.65112 0.144694,0.38241 0.144694,0.79065 0,0.60978 -0.320394,1.13171 -0.315226,0.51677 -0.894002,0.83199 -0.573608,0.31006 -1.312581,0.31006 -0.583944,0 -1.059367,-0.093 v -0.0517 q 0.10852,0.0103 0.330729,0.0103 0.578776,0 1.069702,-0.19637 0.496094,-0.20153 0.795817,-0.62011 0.299724,-0.42375 0.299724,-1.05937 0,-0.73897 -0.459921,-1.3901 -0.45992,-0.65112 -1.35909,-0.65112 -0.434082,0 -0.769979,0.0827 -0.03617,0.20671 -0.07751,1.02836 -0.04134,0.82166 -0.04134,1.15239 v 2.46496 q 0,0.15503 0.02067,0.7028 0.02584,0.54261 0.05168,0.94051 0.02584,0.39791 0.07751,0.66663 l 1.291911,0.1912 -0.05684,0.062 h -3.870565 l 0.02067,-0.0724 1.250569,-0.18087 q 0.05684,-0.43408 0.08785,-0.91984 0.03101,-0.48576 0.05168,-1.16789 0.02584,-0.68729 0.02584,-1.02319 v -1.24023 q 0,-0.6563 -0.04134,-1.46762 -0.04134,-0.81648 -0.103353,-1.27124 l -1.281576,-0.18086 z m 1.576131,0.19637 v 7.17785 h 0.361735 v -7.17785 z m 2.072225,-0.0723 h -0.186035 v 0.0517 q 0.583944,0.031 1.018026,0.33589 0.439249,0.29973 0.661458,0.78032 0.222209,0.48059 0.222209,1.03352 0,0.63046 -0.268718,1.04387 -0.268717,0.41341 -0.640787,0.59945 -0.372071,0.18603 -0.738973,0.2222 v 0.062 h 0.09302 q 0.289388,0 0.733805,-0.15503 0.449585,-0.1602 0.821656,-0.60979 0.37207,-0.44958 0.37207,-1.2454 0,-0.49092 -0.201538,-0.98185 -0.201538,-0.49093 -0.676961,-0.81132 -0.470256,-0.32556 -1.209229,-0.32556 z m -8.2217201,0.0981 v 7.17269 h 0.3565674 v -7.17269 z m -1.5657958,-0.20153 h 5.5242104 l 0.1033529,1.63814 H 9.4538344 L 9.0817641,284.1953 q -0.5736084,-0.031 -0.9611816,-0.031 -0.9766846,0 -1.6433105,0.14986 -0.041341,0.35657 -0.077515,0.98185 -0.036174,0.62529 -0.036174,0.95601 0,0.36174 0.041341,1.0542 0.4805909,0.0568 1.1213786,0.0568 0.6769612,0 1.1213785,-0.0568 l 0.2532146,-0.88883 h 0.067179 v 2.21175 H 8.9008966 L 8.647682,287.68863 q -0.2945556,-0.031 -0.5684407,-0.0413 -0.2687174,-0.0103 -0.5632731,-0.0103 -0.2790527,0 -1.1213785,0.0517 -0.031006,0.5426 -0.031006,1.11104 0,0.39791 0.041341,1.18339 0.041341,0.78032 0.1033529,1.20923 l 1.2919108,0.18087 v 0.0517 H 3.8986181 v -0.0517 L 5.14402,291.19229 q 0.077515,-0.5426 0.1240235,-1.46244 0.046509,-0.91984 0.046509,-1.54513 v -1.4366 q 0,-0.26872 -0.020671,-0.79065 -0.015503,-0.5271 -0.046509,-1.02319 -0.025838,-0.50127 -0.082682,-0.832 l -1.2660725,-0.1912 z" />
    </clipPath>
  </defs>
  <path clip-path="url(#frydsvgclip)"
     d="m 5.4644139,284.06094 v 7.17269 h 0.3565674 v -7.17269 z m -1.5657958,-0.20153 h 5.5242104 l 0.1033529,1.63814 H 9.4538344 L 9.0817641,284.1953 q -0.5736084,-0.031 -0.9611816,-0.031 -0.9766846,0 -1.6433105,0.14986 -0.041341,0.35657 -0.077515,0.98185 -0.036174,0.62529 -0.036174,0.95601 0,0.36174 0.041341,1.0542 0.4805909,0.0568 1.1213786,0.0568 0.6769612,0 1.1213785,-0.0568 l 0.2532146,-0.88883 h 0.067179 v 2.21175 H 8.9008966 L 8.647682,287.68863 q -0.2945556,-0.031 -0.5684407,-0.0413 -0.2687174,-0.0103 -0.5632731,-0.0103 -0.2790527,0 -1.1213785,0.0517 -0.031006,0.5426 -0.031006,1.11104 0,0.39791 0.041341,1.18339 0.041341,0.78032 0.1033529,1.20923 l 1.2919108,0.18087 v 0.0517 H 3.8986181 v -0.0517 L 5.14402,291.19229 q 0.077515,-0.5426 0.1240235,-1.46244 0.046509,-0.91984 0.046509,-1.54513 v -1.4366 q 0,-0.26872 -0.020671,-0.79065 -0.015503,-0.5271 -0.046509,-1.02319 -0.025838,-0.50127 -0.082682,-0.832 l -1.2660725,-0.1912 z"
     stroke-width="0.26458332" stroke="red"
     id="path1550" />
  <path clip-path="url(#frydsvgclip)"
     d="m 10.037778,283.83874 h 3.586345 q 0.862996,0 1.348754,0.16019 0.485759,0.15503 0.800985,0.47026 0.26355,0.26355 0.403076,0.65112 0.144694,0.38241 0.144694,0.79065 0,0.60978 -0.320394,1.13171 -0.315226,0.51677 -0.894002,0.83199 -0.573608,0.31006 -1.312581,0.31006 -0.583944,0 -1.059367,-0.093 v -0.0517 q 0.10852,0.0103 0.330729,0.0103 0.578776,0 1.069702,-0.19637 0.496094,-0.20153 0.795817,-0.62011 0.299724,-0.42375 0.299724,-1.05937 0,-0.73897 -0.459921,-1.3901 -0.45992,-0.65112 -1.35909,-0.65112 -0.434082,0 -0.769979,0.0827 -0.03617,0.20671 -0.07751,1.02836 -0.04134,0.82166 -0.04134,1.15239 v 2.46496 q 0,0.15503 0.02067,0.7028 0.02584,0.54261 0.05168,0.94051 0.02584,0.39791 0.07751,0.66663 l 1.291911,0.1912 -0.05684,0.062 h -3.870565 l 0.02067,-0.0724 1.250569,-0.18087 q 0.05684,-0.43408 0.08785,-0.91984 0.03101,-0.48576 0.05168,-1.16789 0.02584,-0.68729 0.02584,-1.02319 v -1.24023 q 0,-0.6563 -0.04134,-1.46762 -0.04134,-0.81648 -0.103353,-1.27124 l -1.281576,-0.18086 z m 1.576131,0.19637 v 7.17785 h 0.361735 v -7.17785 z m 2.072225,-0.0723 h -0.186035 v 0.0517 q 0.583944,0.031 1.018026,0.33589 0.439249,0.29973 0.661458,0.78032 0.222209,0.48059 0.222209,1.03352 0,0.63046 -0.268718,1.04387 -0.268717,0.41341 -0.640787,0.59945 -0.372071,0.18603 -0.738973,0.2222 v 0.062 h 0.09302 q 0.289388,0 0.733805,-0.15503 0.449585,-0.1602 0.821656,-0.60979 0.37207,-0.44958 0.37207,-1.2454 0,-0.49092 -0.201538,-0.98185 -0.201538,-0.49093 -0.676961,-0.81132 -0.470256,-0.32556 -1.209229,-0.32556 z"
     style="font-style:normal;font-variant:normal;font-weight:normal;font-stretch:normal;font-size:10.58333302px;font-family:Castellar;-inkscape-font-specification:'Castellar, Normal';font-variant-ligatures:normal;font-variant-caps:normal;font-variant-numeric:normal;font-feature-settings:normal;text-align:start;writing-mode:lr-tb;text-anchor:start;stroke-width:0.26458332"
     id="path1552" />
  <path clip-path="url(#frydsvgclip)"
     d="m 20.455747,283.85941 h 4.25297 q 1.188558,0 2.020549,0.34623 0.837158,0.34106 1.317749,0.894 0.485758,0.55294 0.692464,1.20406 0.211873,0.65112 0.211873,1.32292 0,0.81649 -0.273885,1.51928 -0.268717,0.69764 -0.780314,1.2144 -0.506429,0.5116 -1.198893,0.79065 -0.687297,0.27389 -1.51412,0.27389 h -4.759399 v -0.0517 l 1.255737,-0.18087 q 0.08785,-0.43925 0.139527,-1.45211 0.05168,-1.01802 0.05168,-1.5968 v -1.35392 q 0,-1.50378 -0.134359,-2.68718 l -1.281575,-0.1912 z m 2.45463,2.58898 v 3.01791 q 0,0.66662 0.07235,1.35392 0.33073,0.15503 0.749309,0.22738 0.418579,0.0723 0.837158,0.0723 0.578776,0 1.142049,-0.21704 0.563273,-0.22221 1.012858,-0.65112 0.454753,-0.42891 0.728638,-1.09037 0.273885,-0.66663 0.273885,-1.52446 0,-0.89917 -0.289388,-1.55546 -0.289388,-0.66146 -0.800985,-1.08004 -0.506429,-0.42374 -1.16272,-0.62528 -0.65629,-0.20154 -1.37976,-0.20154 -0.583944,0 -1.054199,0.12919 -0.03101,0.19637 -0.06201,0.56328 -0.02584,0.36173 -0.04651,0.85266 -0.02067,0.49092 -0.02067,0.72863 z m -0.888834,-2.38745 v 7.16236 h 0.361735 v -7.16236 z m 1.870687,-0.0775 v 0.0517 q 0.749308,0 1.343587,0.12919 0.599446,0.12919 1.002523,0.3514 0.408243,0.22221 0.702799,0.51676 0.304891,0.30489 0.521932,0.7028 0.222209,0.39791 0.346232,0.88367 0.129191,0.48576 0.129191,1.02836 0,1.20406 -0.516764,2.02055 -0.516764,0.81648 -1.27124,1.19889 -0.754476,0.37724 -1.431438,0.37724 h -0.39274 v 0.0517 h 0.39274 q 1.126547,0 1.948202,-0.49092 0.826823,-0.4961 1.25057,-1.32809 0.423746,-0.83715 0.423746,-1.80867 0,-0.86817 -0.304891,-1.54513 -0.299723,-0.68213 -0.754476,-1.13171 -0.976684,-1.00769 -3.079915,-1.00769 z"
     style="font-style:normal;font-variant:normal;font-weight:normal;font-stretch:normal;font-size:10.58333302px;font-family:Castellar;-inkscape-font-specification:'Castellar, Normal';font-variant-ligatures:normal;font-variant-caps:normal;font-variant-numeric:normal;font-feature-settings:normal;text-align:start;writing-mode:lr-tb;text-anchor:start;stroke-width:0.26458332"
     id="path1554" />
  <path clip-path="url(#frydsvgclip)"
     d="m 31.106258,284.06094 v 7.16236 h 0.356568 v -7.16236 z m -1.570963,-0.14986 v -0.0517 h 5.50354 l 0.129191,1.60713 h -0.08268 l -0.372071,-1.2609 q -0.439249,-0.031 -0.98702,-0.031 -0.997355,0 -1.607137,0.13953 -0.103352,0.83716 -0.103352,1.91203 0,0.67179 0.04134,1.09037 0.816487,0.0465 1.038696,0.0465 0.583944,0 1.204061,-0.0672 l 0.232544,-0.8785 h 0.08785 v 2.20142 h -0.08785 l -0.24288,-0.93018 q -0.449584,-0.0517 -0.992187,-0.0517 -0.682129,0 -1.240234,0.062 -0.06718,0.59945 -0.04134,1.17306 0.01034,0.7338 0.02584,1.2144 0.0155,0.47542 0.05684,0.82165 0.630452,0.1912 1.653646,0.1912 0.589111,0 0.992187,-0.0465 l 0.413412,-1.2454 h 0.07235 l -0.113689,1.61748 h -5.565551 v -0.0517 l 1.235066,-0.18087 q 0.04134,-0.21187 0.07235,-0.64595 0.03617,-0.43409 0.06201,-0.97152 0.02584,-0.5426 0.03617,-0.90434 0.01034,-0.3669 0.01034,-0.64079 v -1.30224 q 0,-0.24805 -0.0155,-0.7028 -0.0155,-0.45992 -0.04651,-0.95085 -0.03101,-0.49092 -0.08785,-0.98185 z"
     style="font-style:normal;font-variant:normal;font-weight:normal;font-stretch:normal;font-size:10.58333302px;font-family:Castellar;-inkscape-font-specification:'Castellar, Normal';font-variant-ligatures:normal;font-variant-caps:normal;font-variant-numeric:normal;font-feature-settings:normal;text-align:start;writing-mode:lr-tb;text-anchor:start;stroke-width:0.26458332"
     id="path1556" />
  <path clip-path="url(#frydsvgclip)"
     d="M 38.459815,283.86974 H 38.29445 q -0.568441,0 -1.049032,0.22738 -0.48059,0.22737 -0.759643,0.64595 -0.279053,0.41858 -0.279053,0.94568 0,0.65629 0.573609,1.2299 0.253214,0.24288 0.470255,0.40824 0.222209,0.16537 0.666626,0.47026 0.444417,0.29972 0.707967,0.49609 0.268718,0.19121 0.43925,0.36691 0.465088,0.46508 0.465088,1.03869 0,0.39274 -0.217041,0.75965 -0.211874,0.36173 -0.620117,0.59427 -0.403077,0.22738 -0.950847,0.23255 v 0.0568 q 0.630453,0.0207 1.121379,-0.22221 0.496094,-0.24287 0.754476,-0.64078 0.263549,-0.39791 0.263549,-0.82166 0,-0.3669 -0.118855,-0.66662 -0.118856,-0.29973 -0.434082,-0.61495 -0.180868,-0.18087 -0.651123,-0.50127 -0.470256,-0.32556 -0.950847,-0.65112 -0.480591,-0.33073 -0.702799,-0.5426 -0.542603,-0.53744 -0.542603,-1.18339 0,-0.56844 0.490926,-1.05937 0.496094,-0.49092 1.488282,-0.51676 z m -2.526978,5.74642 0.392741,1.27124 q 0.294556,0.13436 0.687297,0.21704 0.397908,0.0827 0.687296,0.0775 0.387573,0 0.707967,-0.13436 0.325562,-0.13436 0.5271,-0.34107 0.206706,-0.2067 0.315226,-0.46509 0.108521,-0.26354 0.108521,-0.51159 0,-0.5116 -0.346233,-0.863 -0.346232,-0.3514 -1.162719,-0.89917 -0.81132,-0.54777 -1.178223,-0.91467 -0.315226,-0.32556 -0.470255,-0.65112 -0.15503,-0.33073 -0.15503,-0.73381 0,-0.44442 0.24288,-0.88367 0.242879,-0.43925 0.749308,-0.72863 0.506429,-0.29456 1.245402,-0.29456 0.335897,0 0.713134,0.0362 0.377238,0.031 0.521932,0.031 0.124024,-0.005 0.232544,-0.005 0.108521,-0.005 0.170533,-0.0103 0.06718,-0.0103 0.139526,-0.0207 l 0.03101,1.76733 h -0.06718 l -0.325561,-1.19373 q -0.718302,-0.31522 -1.25057,-0.31522 -0.444417,0 -0.800984,0.17053 -0.3514,0.16537 -0.547771,0.45992 -0.19637,0.28939 -0.19637,0.65629 0,0.38241 0.26355,0.7028 0.26355,0.31523 0.718302,0.62012 0.45992,0.30489 0.981852,0.64595 0.5271,0.34107 0.842326,0.65629 0.61495,0.61495 0.61495,1.42111 0,0.45475 -0.237712,0.94051 -0.237711,0.48059 -0.800984,0.81648 -0.563274,0.3359 -1.457276,0.3359 -0.315226,0 -0.769979,-0.0362 -0.449585,-0.0362 -0.661458,-0.0362 -0.09819,0 -0.155029,0.005 -0.05168,0.005 -0.165365,0.0155 -0.113688,0.0103 -0.134359,0.0103 l -0.08268,-1.81901 z"
     style="font-style:normal;font-variant:normal;font-weight:normal;font-stretch:normal;font-size:10.58333302px;font-family:Castellar;-inkscape-font-specification:'Castellar, Normal';font-variant-ligatures:normal;font-variant-caps:normal;font-variant-numeric:normal;font-feature-settings:normal;text-align:start;writing-mode:lr-tb;text-anchor:start;stroke-width:0.26458332"
     id="path1558" />
  <path clip-path="url(#frydsvgclip)"
     d="m 42.330378,284.06094 v 7.16236 h 0.361735 v -7.16236 z m 2.330607,7.3639 h -3.906738 v -0.0517 l 1.260905,-0.1912 q 0.08785,-0.64596 0.129191,-1.55546 0.04651,-0.91468 0.04651,-1.78801 v -0.86816 q 0,-1.7725 -0.155029,-2.87838 l -1.281576,-0.18087 v -0.0517 h 3.906738 v 0.0517 l -1.291911,0.18087 q -0.05684,0.50126 -0.08268,0.9095 -0.02584,0.40308 -0.04651,0.98186 -0.02067,0.57361 -0.02067,1.08003 v 1.14205 q 0,0.31523 0.02067,1.03353 0.02584,0.71314 0.06201,1.20923 0.04134,0.49609 0.07751,0.74414 l 1.281575,0.18087 z"
     style="font-style:normal;font-variant:normal;font-weight:normal;font-stretch:normal;font-size:10.58333302px;font-family:Castellar;-inkscape-font-specification:'Castellar, Normal';font-variant-ligatures:normal;font-variant-caps:normal;font-variant-numeric:normal;font-feature-settings:normal;text-align:start;writing-mode:lr-tb;text-anchor:start;stroke-width:0.26458332"
     id="path1560" />
  <path clip-path="url(#frydsvgclip)"
     d="m 51.399594,288.72733 v 2.02054 l 0.346233,-0.12919 v -1.89135 z m 1.860352,-0.14987 -0.826823,0.19121 q -0.06718,0.37723 -0.10852,0.96635 -0.04134,0.58911 -0.03617,1.0542 -0.594279,0.23254 -0.971517,0.35656 -0.37207,0.12403 -0.894002,0.22221 -0.516764,0.0982 -1.131714,0.0982 -1.018026,0 -1.793172,-0.3204 -0.775147,-0.32039 -1.281576,-0.85783 -0.501261,-0.5426 -0.74414,-1.20406 -0.242879,-0.66146 -0.242879,-1.33325 0,-0.79065 0.268717,-1.50895 0.268717,-0.72347 0.790649,-1.28674 0.521932,-0.56844 1.276408,-0.88884 0.759644,-0.32556 1.715658,-0.32556 0.149861,0 0.232544,0.005 0.08785,0.005 0.217041,0.0103 0.129191,0.005 0.346232,0.0155 0.630452,0.0413 1.193725,0.0413 0.521932,0 0.847494,-0.031 l 0.07235,1.72599 h -0.07235 l -0.330729,-1.15238 q -0.196371,-0.0517 -0.490926,-0.10335 -0.294556,-0.0568 -0.666626,-0.0982 -0.366903,-0.0413 -0.795817,-0.0413 -0.904338,0 -1.570964,0.29456 -0.666626,0.28938 -1.07487,0.78548 -0.403076,0.49092 -0.589111,1.09037 -0.186035,0.59945 -0.186035,1.22473 0,0.70797 0.258382,1.33842 0.26355,0.63045 0.738973,1.11621 0.480591,0.48576 1.116211,0.75965 0.63562,0.26871 1.348755,0.26871 0.186035,0 0.382405,-0.0207 0.196371,-0.0207 0.403076,-0.0517 0.211874,-0.0362 0.480591,-0.0775 0.108521,-0.45992 0.108521,-0.97152 0,-0.70796 -0.108521,-1.11104 l -1.333252,-0.18087 v -0.062 h 3.451986 z m -3.3538,-4.64571 v -0.0413 q -0.346233,-0.031 -0.625285,-0.031 -0.837158,0 -1.545126,0.28938 -0.702799,0.28939 -1.219563,0.81649 -0.511597,0.52193 -0.795817,1.2454 -0.279053,0.71831 -0.279053,1.53996 0,0.96118 0.480591,1.78801 0.480591,0.82165 1.37976,1.30741 0.89917,0.48576 2.118734,0.48576 0.227376,0 0.620117,-0.0465 v -0.0413 q -1.136881,0.005 -1.953369,-0.31006 -0.816487,-0.31523 -1.317749,-0.85783 -0.501261,-0.5426 -0.728637,-1.18856 -0.222209,-0.64595 -0.222209,-1.29191 0,-0.79582 0.253214,-1.46761 0.258383,-0.67179 0.749309,-1.16272 0.490926,-0.49092 1.229899,-0.75964 0.74414,-0.27389 1.674316,-0.27389 z"
     style="font-style:normal;font-variant:normal;font-weight:normal;font-stretch:normal;font-size:10.58333302px;font-family:Castellar;-inkscape-font-specification:'Castellar, Normal';font-variant-ligatures:normal;font-variant-caps:normal;font-variant-numeric:normal;font-feature-settings:normal;text-align:start;writing-mode:lr-tb;text-anchor:start;stroke-width:0.26458332"
     id="path1562" />
  <path
     d="m 53.373633,283.91108 v -0.0517 h 2.60966 q 0.258382,0.3514 0.666626,0.84749 0.413411,0.49609 0.733805,0.85266 l 2.315104,2.57349 q 0.45992,0.50126 0.713135,0.77514 0.258382,0.27389 0.666626,0.66663 0.03101,-0.35657 0.04134,-0.66663 0.01034,-0.31006 0.01034,-0.58394 v -2.23242 q 0,-1.20406 -0.118855,-1.98955 l -1.255738,-0.1912 v -0.0517 h 3.074748 v 0.0517 l -1.255737,0.20154 q -0.09819,0.72347 -0.09819,1.85002 v 5.66373 h -0.05168 q -0.790649,-1.00252 -1.565796,-1.87585 l -3.162597,-3.52433 q -0.7028,-0.74931 -1.198894,-1.19373 -0.07235,0.7028 -0.07235,1.31258 v 3.27112 q 0,0.65629 0.103353,1.5658 l 1.312582,0.1912 v 0.0517 h -3.141927 v -0.0517 l 1.27124,-0.18087 q 0.06201,-0.37207 0.08785,-1.05937 0.02584,-0.68729 0.02584,-1.22473 v -2.53214 q 0,-0.44959 -0.0155,-0.88884 -0.0155,-0.44441 -0.05684,-0.8785 l -0.687297,-0.50643 z m 1.545125,0.13953 6.242513,6.94014 v -0.48576 l -5.808431,-6.45438 z"
     style="font-style:normal;font-variant:normal;font-weight:normal;font-stretch:normal;font-size:10.58333302px;font-family:Castellar;-inkscape-font-specification:'Castellar, Normal';font-variant-ligatures:normal;font-variant-caps:normal;font-variant-numeric:normal;font-feature-settings:normal;text-align:start;writing-mode:lr-tb;text-anchor:start;stroke-width:0.26458332"
     id="path1564" />
</svg>
