<svg width="468.225" height="113.364" viewBox="0 0 468.225 113.364" xmlns="http://www.w3.org/2000/svg"><g id="svgGroup" stroke-linecap="round" fill-rule="evenodd" font-size="9pt" stroke="#000" stroke-width="0.25mm" fill="none" style="stroke:#000;stroke-width:0.25mm;fill:none"><path d="M 461.125 91.1 L 461.125 90.4 Q 461.025 89 460.975 87.6 Q 460.925 86.2 460.925 84.8 Q 460.925 83.7 460.775 82.55 A 34.691 34.691 0 0 0 460.568 81.171 A 28.579 28.579 0 0 0 460.425 80.4 A 7.314 7.314 0 0 0 459.993 79.145 A 5.983 5.983 0 0 0 459.525 78.3 Q 459.025 77.4 458.625 76.45 Q 458.225 75.5 457.825 74.5 Q 457.725 74.1 457.475 73.8 Q 457.225 73.5 457.025 73.2 L 454.425 70 Q 453.125 68.4 451.825 66.7 L 449.125 63.2 L 446.525 59.9 Q 445.725 58.8 444.875 57.75 Q 444.025 56.7 443.225 55.6 Q 442.025 53.9 440.725 52.25 Q 439.425 50.6 438.025 49 A 168.968 168.968 0 0 0 433.225 42.981 A 150.624 150.624 0 0 0 431.625 41.1 A 34.552 34.552 0 0 0 430.875 40.019 A 31.647 31.647 0 0 0 430.825 39.95 A 34.174 34.174 0 0 1 430.075 38.875 A 37.317 37.317 0 0 1 430.025 38.8 A 28.588 28.588 0 0 1 429.275 37.819 A 31.297 31.297 0 0 1 429.225 37.75 Q 428.825 37.2 428.325 36.7 A 7.271 7.271 0 0 0 427.988 36.282 A 5.679 5.679 0 0 0 427.725 36 A 2.668 2.668 0 0 1 427.227 35.303 A 2.842 2.842 0 0 1 427.225 35.3 L 423.025 30.5 A 7.271 7.271 0 0 0 422.688 30.082 A 5.679 5.679 0 0 0 422.425 29.8 L 421.825 29.2 Q 420.825 28.1 419.775 26.95 Q 418.725 25.8 417.625 24.8 A 11.699 11.699 0 0 0 417.125 24.214 A 9.71 9.71 0 0 0 416.825 23.9 A 3.43 3.43 0 0 0 416.281 23.461 A 4.465 4.465 0 0 0 415.825 23.2 L 415.725 23.2 Q 415.642 23.2 415.559 23.269 A 0.497 0.497 0 0 0 415.525 23.3 L 415.525 23.6 A 0.746 0.746 0 0 0 415.472 23.745 Q 415.425 23.925 415.425 24.2 L 415.425 25.75 A 12.308 12.308 0 0 1 415.351 27.076 A 13.75 13.75 0 0 1 415.325 27.3 A 2.254 2.254 0 0 0 415.268 27.625 Q 415.258 27.719 415.258 27.811 A 1.687 1.687 0 0 0 415.275 28.05 A 1.621 1.621 0 0 1 415.292 28.26 Q 415.292 28.269 415.292 28.278 A 1.326 1.326 0 0 1 415.225 28.7 L 415.225 33.4 L 415.225 34.05 A 2.785 2.785 0 0 1 415.193 34.46 A 3.572 3.572 0 0 1 415.125 34.8 Q 415.025 35.4 415.025 36 L 415.025 37.3 L 415.025 39.9 Q 415.025 40.8 414.975 41.7 Q 414.925 42.6 414.825 43.5 Q 414.725 44.7 414.725 45.9 L 414.725 48.3 L 414.725 50.05 Q 414.725 50.9 414.525 51.7 L 414.525 52.7 L 414.525 54.4 A 14.449 14.449 0 0 1 414.478 55.59 A 12.252 12.252 0 0 1 414.425 56.1 L 414.425 57.15 A 5.459 5.459 0 0 1 414.359 58.011 A 4.903 4.903 0 0 1 414.325 58.2 A 5.094 5.094 0 0 0 414.275 58.878 Q 414.272 59.217 414.311 59.576 A 6.862 6.862 0 0 0 414.325 59.7 Q 414.325 60.6 414.375 61.5 A 26.174 26.174 0 0 0 414.467 62.69 A 22.12 22.12 0 0 0 414.525 63.2 L 414.825 65.2 Q 415.025 66.5 415.325 67.75 Q 415.625 69 415.925 70.3 Q 416.025 70.6 416.125 70.95 Q 416.225 71.3 416.325 71.6 A 3.296 3.296 0 0 1 416.525 72.223 Q 416.582 72.497 416.582 72.763 A 2.434 2.434 0 0 1 416.575 72.95 Q 416.525 73.6 416.425 74.3 A 1.607 1.607 0 0 1 416.356 74.469 Q 416.268 74.658 416.104 74.923 A 10.011 10.011 0 0 1 415.925 75.2 Q 415.725 75.6 415.475 75.95 Q 415.225 76.3 414.925 76.6 Q 414.525 77.2 414.425 77.5 Q 414.425 77.72 414.317 77.994 A 2.536 2.536 0 0 1 414.225 78.2 L 414.225 78.6 A 2.323 2.323 0 0 1 413.864 79.409 Q 413.465 79.959 412.732 80.127 A 3.175 3.175 0 0 1 412.025 80.2 A 0.81 0.81 0 0 1 411.892 80.211 Q 411.379 80.211 410.865 79.553 A 3.571 3.571 0 0 1 410.825 79.5 Q 410.825 79.4 410.775 79.3 A 0.482 0.482 0 0 1 410.735 79.188 A 0.408 0.408 0 0 1 410.725 79.1 Q 410.625 78.3 410.175 77.75 Q 409.725 77.2 409.325 76.7 Q 409.125 76.4 408.875 76.15 L 408.425 75.7 A 6.064 6.064 0 0 1 408.214 75.361 Q 408.019 75.023 407.942 74.763 A 1.511 1.511 0 0 1 407.925 74.7 L 407.525 73.7 A 41.279 41.279 0 0 1 407.064 72.364 A 34.749 34.749 0 0 1 406.825 71.6 Q 406.525 70.6 406.325 69.6 Q 406.325 69.466 406.28 69.377 A 0.296 0.296 0 0 0 406.225 69.3 A 16.427 16.427 0 0 1 405.794 67.15 A 18.025 18.025 0 0 1 405.775 67 Q 405.625 65.8 405.425 64.6 A 5.962 5.962 0 0 0 405.412 64.186 Q 405.388 63.853 405.325 63.6 A 25.884 25.884 0 0 1 405.258 61.756 A 24.465 24.465 0 0 1 405.275 60.85 Q 405.325 59.5 405.325 58.2 L 405.325 54.6 A 23.585 23.585 0 0 1 405.363 53.238 A 21.484 21.484 0 0 1 405.375 53.05 A 19.586 19.586 0 0 1 405.501 51.776 A 17.879 17.879 0 0 1 405.525 51.6 A 5.207 5.207 0 0 0 405.611 50.995 A 4.32 4.32 0 0 0 405.625 50.65 L 405.625 49.8 L 405.625 48.8 Q 405.625 48.3 405.725 47.8 Q 405.825 47 405.825 46.2 L 405.825 44.7 A 6.475 6.475 0 0 0 405.891 43.845 Q 405.892 43.817 405.892 43.789 A 5.721 5.721 0 0 0 405.875 43.35 A 17.363 17.363 0 0 1 405.826 42.185 A 19.322 19.322 0 0 1 405.825 42 Q 405.925 41.2 405.925 40.35 L 405.925 38.6 Q 406.025 37.4 406.025 36.2 L 406.025 33.8 A 19.649 19.649 0 0 0 406.125 31.909 A 18.105 18.105 0 0 0 406.125 31.85 A 19.546 19.546 0 0 1 406.219 29.962 A 21.322 21.322 0 0 1 406.225 29.9 A 1.487 1.487 0 0 0 406.276 29.695 Q 406.314 29.483 406.323 29.181 A 6.387 6.387 0 0 0 406.325 29 L 406.325 19.6 Q 406.125 18.3 406.075 17.05 Q 406.025 15.8 406.025 14.5 A 3.454 3.454 0 0 0 405.811 13.319 A 4.061 4.061 0 0 0 405.725 13.1 Q 405.725 12.947 405.607 12.675 A 3.598 3.598 0 0 0 405.525 12.5 Q 404.725 10.5 405.625 8.3 A 4.401 4.401 0 0 1 407.363 6.341 A 6.672 6.672 0 0 1 408.725 5.7 Q 410.025 5.3 411.625 5.8 Q 412.025 5.9 412.375 6.1 A 1.736 1.736 0 0 1 412.721 6.357 A 1.472 1.472 0 0 1 412.925 6.6 A 1.758 1.758 0 0 1 413.002 6.681 Q 413.11 6.804 413.123 6.88 A 0.117 0.117 0 0 1 413.125 6.9 Q 414.225 8.2 415.525 9.3 L 416.875 10.65 Q 417.525 11.3 418.225 12.1 L 420.825 14.8 L 422.575 16.55 A 22.146 22.146 0 0 1 424.024 18.152 A 24.402 24.402 0 0 1 424.225 18.4 L 424.925 19.1 Q 426.025 20.3 427.175 21.5 Q 428.325 22.7 429.325 24 Q 429.925 24.7 430.525 25.35 A 17.279 17.279 0 0 1 431.275 26.221 A 20.764 20.764 0 0 1 431.725 26.8 L 434.025 29.5 Q 435.925 31.9 437.725 34.35 Q 439.525 36.8 441.425 39.2 Q 442.225 40.2 442.975 41.2 Q 443.725 42.2 444.425 43.2 L 445.125 44.1 Q 445.625 44.9 446.225 45.65 Q 446.825 46.4 447.425 47.2 Q 448.225 48.2 449.025 49.15 A 63.39 63.39 0 0 1 450.169 50.547 A 55.716 55.716 0 0 1 450.525 51 A 10.148 10.148 0 0 1 451.558 52.216 A 11.659 11.659 0 0 1 451.825 52.6 Q 453.525 54.5 455.025 56.4 A 0.616 0.616 0 0 0 455.085 56.426 Q 455.241 56.484 455.325 56.4 L 455.325 56.3 A 7.195 7.195 0 0 1 455.345 55.78 A 8.664 8.664 0 0 1 455.375 55.45 A 8.272 8.272 0 0 0 455.418 54.907 A 6.866 6.866 0 0 0 455.425 54.6 A 6.28 6.28 0 0 1 455.365 54.25 Q 455.341 54.084 455.332 53.939 A 2.879 2.879 0 0 1 455.325 53.75 L 455.325 53 L 455.325 51.65 A 9.251 9.251 0 0 0 455.269 50.647 A 10.521 10.521 0 0 0 455.225 50.3 L 455.225 48.9 Q 455.125 48.1 455.125 47.35 L 455.125 45.9 L 455.125 45.7 Q 455.025 44.6 454.975 43.45 Q 454.925 42.3 454.825 41.2 A 8.631 8.631 0 0 0 454.79 40.404 A 6.99 6.99 0 0 0 454.725 39.9 L 454.525 38.7 A 4.142 4.142 0 0 0 454.509 38.347 A 5.3 5.3 0 0 0 454.475 38.05 Q 454.425 37.7 454.425 37.4 A 24.225 24.225 0 0 1 454.333 35.87 A 20.862 20.862 0 0 1 454.325 35.3 Q 454.325 34.3 454.225 33.3 Q 454.125 31.7 453.975 30.1 Q 453.825 28.5 453.825 26.9 A 63.625 63.625 0 0 0 453.892 24.011 A 59.283 59.283 0 0 0 453.875 22.6 Q 453.825 20.5 453.825 18.3 L 453.825 16.5 A 1.412 1.412 0 0 0 453.82 16.37 Q 453.808 16.243 453.771 16.166 A 0.241 0.241 0 0 0 453.725 16.1 A 13.221 13.221 0 0 1 453.642 15.185 A 10.691 10.691 0 0 1 453.625 14.6 L 453.625 13.2 L 453.625 12.2 Q 453.625 11.3 453.525 10.4 A 7.072 7.072 0 0 0 453.163 8.804 A 6.584 6.584 0 0 0 453.125 8.7 L 453.125 8.5 Q 452.817 7.73 453.043 6.842 A 3.913 3.913 0 0 1 453.225 6.3 A 5.326 5.326 0 0 1 453.795 5.017 A 4.773 4.773 0 0 1 454.125 4.55 Q 454.725 3.8 455.425 3.1 L 456.125 2.8 A 5.149 5.149 0 0 1 457.231 2.515 Q 458.249 2.375 459.225 2.7 L 460.725 3.6 Q 460.925 3.7 461.075 3.95 A 8.456 8.456 0 0 1 461.197 4.159 Q 461.251 4.255 461.296 4.343 A 4.761 4.761 0 0 1 461.325 4.4 A 6.506 6.506 0 0 1 461.991 5.666 A 4.793 4.793 0 0 1 462.325 7.4 A 7.195 7.195 0 0 0 462.345 7.92 A 8.664 8.664 0 0 0 462.375 8.25 Q 462.425 8.7 462.425 9.2 Q 462.425 9.6 462.325 10 Q 462.225 10.4 462.225 10.8 A 26.505 26.505 0 0 1 462.292 12.689 A 27.887 27.887 0 0 1 462.275 13.65 Q 462.225 15.1 462.225 16.5 Q 462.225 17.2 462.275 17.9 A 19.61 19.61 0 0 1 462.318 18.814 A 23.845 23.845 0 0 1 462.325 19.4 L 462.325 20.25 A 4.546 4.546 0 0 0 462.368 20.862 A 5.501 5.501 0 0 0 462.425 21.2 A 2.935 2.935 0 0 1 462.486 21.528 Q 462.509 21.704 462.519 21.908 A 6.327 6.327 0 0 1 462.525 22.2 L 462.525 24.5 L 462.525 25.5 Q 462.525 26 462.625 26.5 Q 462.725 27 462.725 27.55 A 5.459 5.459 0 0 0 462.791 28.411 A 4.903 4.903 0 0 0 462.825 28.6 L 462.825 29.35 A 2.785 2.785 0 0 0 462.857 29.76 A 3.572 3.572 0 0 0 462.925 30.1 Q 462.925 30.3 462.975 30.5 Q 463.025 30.7 463.025 30.9 Q 463.025 31.5 463.075 32.1 Q 463.125 32.7 463.225 33.3 Q 463.225 34.4 463.375 35.6 Q 463.525 36.8 463.525 38 A 5.693 5.693 0 0 0 463.545 38.48 A 4.731 4.731 0 0 0 463.575 38.75 A 6.733 6.733 0 0 0 463.647 39.16 A 8.476 8.476 0 0 0 463.725 39.5 L 463.725 40 Q 463.725 41.1 463.875 42.2 Q 464.025 43.3 464.025 44.4 L 464.025 44.8 Q 464.225 45.8 464.225 46.8 A 22.326 22.326 0 0 0 464.279 48.323 A 25.913 25.913 0 0 0 464.325 48.9 L 464.325 49.7 Q 464.325 50.1 464.425 50.5 Q 464.425 50.6 464.475 50.75 A 1.304 1.304 0 0 1 464.501 50.839 Q 464.513 50.884 464.519 50.924 A 0.519 0.519 0 0 1 464.525 51 A 17.959 17.959 0 0 0 464.577 52.386 A 15.478 15.478 0 0 0 464.625 52.9 L 464.825 54.7 L 465.125 56.9 L 465.225 57.6 Q 465.325 58.7 465.475 59.8 Q 465.625 60.9 465.725 62 L 466.025 64.8 Q 466.225 66.1 466.525 67.4 Q 466.825 68.7 467.525 69.9 Q 467.825 70.5 467.975 71.15 Q 468.125 71.8 468.225 72.4 L 468.225 73.2 A 1.487 1.487 0 0 0 468.174 73.405 Q 468.136 73.617 468.127 73.919 A 6.387 6.387 0 0 0 468.125 74.1 Q 468.025 75.3 467.525 76.5 L 467.125 77.7 L 466.725 78.9 A 3.473 3.473 0 0 0 466.646 79.323 A 2.713 2.713 0 0 0 466.625 79.65 A 2.785 2.785 0 0 1 466.593 80.06 A 3.572 3.572 0 0 1 466.525 80.4 Q 466.225 82.2 466.225 84 L 466.225 87 Q 466.325 88.3 466.325 89.6 L 466.325 92.2 L 466.325 94.2 L 466.325 95.25 A 5.459 5.459 0 0 0 466.391 96.111 A 4.903 4.903 0 0 0 466.425 96.3 A 0.622 0.622 0 0 1 466.482 96.484 Q 466.499 96.594 466.485 96.724 A 1.3 1.3 0 0 1 466.475 96.8 A 4.666 4.666 0 0 0 466.447 96.994 Q 466.436 97.082 466.43 97.158 A 2.029 2.029 0 0 0 466.425 97.3 Q 466.325 97.8 466.325 98.35 L 466.325 99.4 L 466.325 103.3 A 8.971 8.971 0 0 1 466.183 104.86 A 10.769 10.769 0 0 1 466.025 105.6 Q 465.77 106.619 464.795 106.989 A 2.846 2.846 0 0 1 464.425 107.1 A 2.621 2.621 0 0 1 464.219 107.129 Q 463.296 107.223 463.025 106.5 Q 462.948 106.347 462.872 106.135 A 5.681 5.681 0 0 1 462.825 106 A 1.362 1.362 0 0 0 462.681 105.694 A 1.155 1.155 0 0 0 462.525 105.5 L 462.325 104.5 L 462.125 103.5 Q 462.025 103.1 461.975 102.7 Q 461.925 102.3 461.925 101.9 Q 461.825 101 461.725 100.15 Q 461.625 99.3 461.525 98.4 Q 461.525 98.2 461.475 98 Q 461.425 97.8 461.425 97.6 Q 461.425 96.3 461.375 95 Q 461.325 93.7 461.225 92.4 A 1.965 1.965 0 0 1 461.131 91.922 A 2.326 2.326 0 0 1 461.125 91.75 L 461.125 91.1 Z M 222.725 78.5 L 222.225 77.4 Q 221.625 76 221.625 74.5 A 6.592 6.592 0 0 1 221.558 73.567 A 6.548 6.548 0 0 1 221.575 73.1 Q 221.625 72.4 221.725 71.7 Q 221.993 70.093 221.703 68.725 A 6.476 6.476 0 0 0 221.625 68.4 L 220.725 63.9 Q 220.625 63.3 220.525 62.65 Q 220.425 62 220.325 61.3 L 220.025 59.9 L 219.825 58.1 Q 219.725 57.2 219.625 56.4 A 1.89 1.89 0 0 1 219.525 55.809 A 1.801 1.801 0 0 1 219.525 55.8 L 219.525 55.2 Q 219.525 54.1 218.825 53.3 Q 218.425 52.8 218.075 52.25 Q 217.725 51.7 217.525 51.2 Q 217.125 50.6 216.775 50.05 Q 216.425 49.5 216.125 48.9 A 1.216 1.216 0 0 0 215.334 48.243 A 1.636 1.636 0 0 0 215.125 48.2 Q 214.525 48.1 214.025 47.7 Q 213.325 47.1 212.725 46.4 Q 212.595 46.14 212.465 45.964 A 1.468 1.468 0 0 0 212.325 45.8 Q 212.025 45.4 212.125 45 A 0.651 0.651 0 0 0 212.192 44.873 Q 212.262 44.691 212.184 44.508 A 0.667 0.667 0 0 0 212.125 44.4 Q 211.825 43.9 211.925 43.5 L 212.125 42.7 A 1.351 1.351 0 0 1 212.18 42.309 A 1.152 1.152 0 0 1 212.325 42 L 212.725 41.4 Q 213.125 40.8 213.675 40.35 Q 214.225 39.9 214.825 39.5 Q 215.085 39.37 215.261 39.24 A 1.468 1.468 0 0 0 215.425 39.1 A 0.993 0.993 0 0 0 215.572 39.028 Q 215.881 38.84 215.735 38.521 A 0.713 0.713 0 0 0 215.725 38.5 L 215.725 38.2 A 126.342 126.342 0 0 0 215.425 36.606 A 109.924 109.924 0 0 0 215.325 36.1 Q 215.125 35.1 214.825 34.1 Q 214.725 33.6 214.575 33.1 Q 214.425 32.6 214.225 32.1 Q 214.144 32.019 214.129 31.806 A 1.484 1.484 0 0 1 214.125 31.7 Q 214.125 31.2 214.025 30.7 Q 213.925 30.2 213.825 29.8 Q 213.525 27.4 212.925 25 A 3.703 3.703 0 0 0 212.646 24.038 A 4.592 4.592 0 0 0 212.425 23.6 A 8.421 8.421 0 0 1 212.167 22.953 Q 212.055 22.631 211.988 22.339 A 4.196 4.196 0 0 1 211.925 22 Q 211.625 20.9 211.325 19.85 A 26.438 26.438 0 0 1 210.877 18.051 A 23.87 23.87 0 0 1 210.825 17.8 Q 210.525 16.8 210.375 15.8 Q 210.225 14.8 210.125 13.8 Q 210.072 12.519 210.559 11.495 A 4.707 4.707 0 0 1 211.825 9.9 L 212.125 9.6 A 5.165 5.165 0 0 1 212.886 9.043 A 3.889 3.889 0 0 1 213.775 8.65 A 6.17 6.17 0 0 1 215.015 8.424 A 7.471 7.471 0 0 1 215.625 8.4 Q 216.525 8.5 217.275 8.25 Q 218.025 8 218.725 7.6 A 0.746 0.746 0 0 1 218.87 7.547 Q 219.05 7.5 219.325 7.5 L 219.625 7.5 A 1.494 1.494 0 0 1 219.836 7.514 Q 220 7.537 220.125 7.6 Q 220.425 7.8 220.825 7.4 Q 220.925 7.3 221.125 7.5 A 0.819 0.819 0 0 0 221.26 7.658 A 0.533 0.533 0 0 0 221.625 7.8 A 0.952 0.952 0 0 0 221.961 7.895 A 1.169 1.169 0 0 0 222.075 7.9 A 0.745 0.745 0 0 1 222.303 7.938 Q 222.399 7.969 222.501 8.025 A 1.639 1.639 0 0 1 222.625 8.1 A 1.858 1.858 0 0 1 222.782 8.189 Q 222.865 8.241 222.956 8.308 A 3.888 3.888 0 0 1 223.075 8.4 Q 223.325 8.6 223.425 9 L 223.725 9.3 Q 223.973 9.383 224.153 9.671 A 1.573 1.573 0 0 1 224.225 9.8 A 0.476 0.476 0 0 0 224.555 10.147 Q 224.707 10.2 224.925 10.2 A 1.342 1.342 0 0 0 225.116 10.184 Q 225.322 10.154 225.615 10.066 A 7.22 7.22 0 0 0 225.825 10 Q 226.925 9.8 227.975 9.6 A 23.681 23.681 0 0 1 229.774 9.327 A 21.611 21.611 0 0 1 230.025 9.3 Q 230.325 9.2 230.725 9.2 Q 232.725 9.1 234.725 8.8 Q 236.725 8.5 238.625 8.1 L 239.125 7.9 Q 241.125 7.6 242.925 6.7 A 10.265 10.265 0 0 1 244.325 6.038 A 11.263 11.263 0 0 1 244.425 6 A 37.454 37.454 0 0 0 245.386 5.625 A 31.494 31.494 0 0 0 245.925 5.4 L 249.325 4.2 Q 250 4.007 250.21 3.814 A 0.484 0.484 0 0 0 250.225 3.8 A 6.064 6.064 0 0 1 250.643 3.479 Q 250.847 3.338 251.037 3.236 A 2.822 2.822 0 0 1 251.325 3.1 A 7.133 7.133 0 0 1 254.125 2.113 A 8.166 8.166 0 0 1 254.225 2.1 A 5.66 5.66 0 0 1 256.018 2.398 A 6.028 6.028 0 0 1 256.025 2.4 A 7.088 7.088 0 0 1 257.776 3.489 A 9.057 9.057 0 0 1 258.625 4.3 Q 258.92 4.792 258.828 5.381 A 1.946 1.946 0 0 1 258.825 5.4 Q 258.525 6 258.825 6.7 A 3.917 3.917 0 0 1 258.862 6.979 Q 258.889 7.268 258.861 7.502 A 1.594 1.594 0 0 1 258.825 7.7 Q 258.725 8.1 258.725 8.5 Q 258.725 8.9 258.625 9.3 A 1.353 1.353 0 0 1 258.583 9.647 A 0.985 0.985 0 0 1 258.325 10.1 Q 257.791 10.863 257.257 11.335 A 4.111 4.111 0 0 1 256.925 11.6 A 0.961 0.961 0 0 0 256.847 11.688 Q 256.803 11.744 256.775 11.8 A 0.456 0.456 0 0 1 256.741 11.856 Q 256.678 11.946 256.539 12.086 A 4.368 4.368 0 0 1 256.525 12.1 A 0.961 0.961 0 0 0 256.447 12.188 Q 256.403 12.244 256.375 12.3 A 0.456 0.456 0 0 1 256.341 12.356 Q 256.278 12.446 256.139 12.586 A 4.368 4.368 0 0 1 256.125 12.6 Q 255.625 13 255.275 13.5 Q 254.925 14 254.525 14.5 A 9.002 9.002 0 0 1 253.592 15.83 A 9.86 9.86 0 0 1 253.575 15.85 Q 253.025 16.5 252.325 17 L 251.525 17.9 A 4.832 4.832 0 0 0 251.172 18.438 Q 251.005 18.736 250.914 19.019 A 2.316 2.316 0 0 0 250.825 19.4 A 41.101 41.101 0 0 0 250.513 20.937 A 37.212 37.212 0 0 0 250.475 21.15 Q 250.325 22 250.325 22.9 L 250.025 25 A 1.703 1.703 0 0 1 249.908 25.613 A 2.091 2.091 0 0 1 249.825 25.8 Q 249.505 26.6 248.673 26.76 A 2.372 2.372 0 0 1 248.225 26.8 Q 248.125 26.9 247.975 26.85 A 1.304 1.304 0 0 0 247.886 26.824 Q 247.841 26.812 247.801 26.806 A 0.519 0.519 0 0 0 247.725 26.8 A 3.129 3.129 0 0 1 247.113 26.364 A 2.242 2.242 0 0 1 246.525 25.5 A 15.277 15.277 0 0 1 246.138 23.943 A 19.736 19.736 0 0 1 245.925 22.6 A 11.163 11.163 0 0 0 245.898 21.839 A 12.957 12.957 0 0 0 245.875 21.55 Q 245.825 21 245.725 20.5 L 245.425 19.8 A 1.169 1.169 0 0 0 245.362 19.626 Q 245.143 19.16 244.634 19.494 A 1.49 1.49 0 0 0 244.625 19.5 Q 244.525 19.5 244.375 19.6 Q 244.226 19.699 244.028 19.798 A 4.255 4.255 0 0 1 244.025 19.8 Q 243.625 20 243.275 20.25 Q 242.925 20.5 242.625 20.8 Q 241.871 21.219 240.837 21.637 A 25.293 25.293 0 0 1 240.425 21.8 Q 238.625 22.4 237.125 23.6 A 1.858 1.858 0 0 0 236.968 23.689 Q 236.885 23.741 236.794 23.808 A 3.888 3.888 0 0 0 236.675 23.9 A 7.351 7.351 0 0 1 236.343 24.15 A 8.781 8.781 0 0 1 236.125 24.3 L 235.525 24.7 Q 235.227 24.898 234.831 25.097 A 9.077 9.077 0 0 1 234.825 25.1 L 234.125 25.5 Q 233.878 25.665 233.562 26.102 A 6.486 6.486 0 0 0 233.425 26.3 A 14.909 14.909 0 0 1 233.264 27.011 A 17.61 17.61 0 0 1 233.175 27.35 Q 233.025 27.9 233.025 28.5 Q 233.025 29.4 232.975 30.3 A 10.814 10.814 0 0 0 232.958 30.9 A 10.858 10.858 0 0 0 233.025 32.1 L 233.025 33.15 Q 233.025 33.7 232.825 34.2 A 1.457 1.457 0 0 0 232.802 34.293 Q 232.684 34.84 233.228 34.724 A 1.445 1.445 0 0 0 233.325 34.7 Q 233.65 34.7 233.891 34.658 A 1.641 1.641 0 0 0 234.125 34.6 Q 235.225 34.4 236.375 34.25 A 34.691 34.691 0 0 0 237.754 34.043 A 28.579 28.579 0 0 0 238.525 33.9 L 240.725 33.6 Q 241.108 33.523 241.403 33.447 A 7.367 7.367 0 0 0 241.575 33.4 Q 241.924 33.3 242.323 33.101 A 4.263 4.263 0 0 0 242.325 33.1 A 3.545 3.545 0 0 1 242.916 32.779 A 2.725 2.725 0 0 1 243.525 32.6 L 244.725 32.4 A 3.144 3.144 0 0 1 245.434 32.318 Q 246.055 32.318 246.675 32.569 A 4.35 4.35 0 0 1 247.325 32.9 L 248.625 33.8 Q 248.892 34.067 248.981 34.335 A 0.838 0.838 0 0 1 249.025 34.6 A 2.803 2.803 0 0 0 249.107 34.847 Q 249.284 35.3 249.525 35.3 A 1.317 1.317 0 0 1 249.61 35.275 Q 249.84 35.215 249.925 35.3 Q 250.225 35.7 250.475 36.15 Q 250.725 36.6 250.825 37.1 A 0.808 0.808 0 0 1 250.806 37.281 Q 250.781 37.39 250.723 37.465 A 0.406 0.406 0 0 1 250.525 37.6 A 0.843 0.843 0 0 0 250.274 37.635 A 0.637 0.637 0 0 0 249.925 37.9 L 249.525 38.5 A 0.302 0.302 0 0 0 249.491 38.54 Q 249.44 38.613 249.469 38.685 A 0.175 0.175 0 0 0 249.475 38.7 A 0.482 0.482 0 0 1 249.515 38.812 A 0.408 0.408 0 0 1 249.525 38.9 Q 249.716 39.186 249.543 39.563 A 1.225 1.225 0 0 1 249.525 39.6 Q 249.425 39.8 249.325 40.05 Q 249.225 40.3 249.125 40.5 Q 248.725 41.4 247.925 42 A 7.55 7.55 0 0 1 247.685 42.23 Q 247.558 42.346 247.443 42.439 A 3.063 3.063 0 0 1 247.225 42.6 A 3.05 3.05 0 0 0 246.639 43.087 Q 246.386 43.353 246.144 43.707 A 7.647 7.647 0 0 0 245.725 44.4 Q 245.625 44.6 245.525 44.85 A 2.387 2.387 0 0 1 245.418 45.078 Q 245.338 45.231 245.225 45.4 A 1.536 1.536 0 0 1 244.793 45.787 Q 244.613 45.897 244.39 45.978 A 2.731 2.731 0 0 1 244.325 46 A 4.408 4.408 0 0 1 243.964 46.057 Q 243.525 46.108 243.176 46.046 A 1.651 1.651 0 0 1 242.725 45.9 L 242.125 45.6 A 1.673 1.673 0 0 0 241.909 45.543 Q 241.451 45.456 241.125 45.7 Q 241.025 45.8 240.625 46 Q 239.725 46.4 238.625 46.1 A 8.957 8.957 0 0 1 238.014 45.827 A 11.236 11.236 0 0 1 237.575 45.6 A 10.85 10.85 0 0 0 236.972 45.294 A 8.641 8.641 0 0 0 236.525 45.1 Q 236.325 45 236.125 44.8 A 0.911 0.911 0 0 0 235.856 44.658 Q 235.629 44.586 235.374 44.651 A 1.212 1.212 0 0 0 235.225 44.7 Q 234.625 44.8 234.025 44.95 Q 233.425 45.1 232.825 45.3 A 5.244 5.244 0 0 0 231.999 45.464 Q 231.444 45.619 230.825 45.9 Q 230.525 45.9 230.225 46.2 A 1.438 1.438 0 0 0 230.014 46.404 Q 229.808 46.653 229.808 46.936 A 0.834 0.834 0 0 0 229.825 47.1 L 229.825 47.3 Q 230.125 48.2 230.275 49.1 Q 230.425 50 230.525 50.9 L 231.125 55.1 A 0.319 0.319 0 0 0 231.13 55.156 Q 231.135 55.187 231.147 55.211 A 0.148 0.148 0 0 0 231.175 55.25 L 231.225 55.3 Q 231.225 56.4 231.325 57.5 Q 231.425 58.6 231.425 59.7 Q 231.425 61 231.475 62.2 Q 231.525 63.4 231.525 64.6 L 231.525 65.8 A 0.864 0.864 0 0 0 231.665 66.007 A 0.603 0.603 0 0 0 232.125 66.2 L 233.425 65.9 Q 233.925 65.8 234.375 65.7 Q 234.825 65.6 235.225 65.5 L 237.025 65.2 Q 237.532 65.2 237.825 65.128 A 1.265 1.265 0 0 0 237.925 65.1 Q 239.225 64.9 240.525 64.6 Q 241.825 64.3 243.125 64.1 Q 243.725 64 244.375 63.9 Q 245.025 63.8 245.725 63.7 Q 246.825 63.6 247.875 63.45 A 48.961 48.961 0 0 1 249.909 63.202 A 43.05 43.05 0 0 1 249.925 63.2 A 11.884 11.884 0 0 1 250.53 63.095 A 9.937 9.937 0 0 1 250.875 63.05 A 8.272 8.272 0 0 1 251.418 63.007 A 6.866 6.866 0 0 1 251.725 63 Q 252.279 62.815 252.577 62.631 A 1.69 1.69 0 0 0 252.625 62.6 Q 252.825 62.4 253.075 62.3 Q 253.281 62.218 253.385 62.135 A 0.459 0.459 0 0 0 253.425 62.1 Q 254.325 61.3 255.425 61.5 A 1.494 1.494 0 0 0 255.636 61.486 Q 255.8 61.463 255.925 61.4 L 256.425 61.4 A 1.494 1.494 0 0 1 256.636 61.414 Q 256.8 61.438 256.925 61.5 A 53.777 53.777 0 0 0 257.372 61.677 Q 257.613 61.77 257.825 61.85 Q 258.225 62 258.625 62.3 A 0.451 0.451 0 0 0 258.686 62.352 Q 258.755 62.4 258.825 62.4 Q 259.542 62.848 260.258 62.574 A 1.858 1.858 0 0 0 260.425 62.5 A 3.067 3.067 0 0 1 260.794 62.291 A 3.966 3.966 0 0 1 261.125 62.15 Q 261.525 62 261.925 61.9 Q 262.925 61.6 263.925 61.9 Q 264.225 62 264.575 62.1 Q 264.884 62.188 265.076 62.354 A 0.927 0.927 0 0 1 265.125 62.4 Q 265.68 62.677 266.149 63.296 A 4.552 4.552 0 0 1 266.225 63.4 A 7.916 7.916 0 0 1 267.132 65.107 A 6.887 6.887 0 0 1 267.425 66.1 A 0.651 0.651 0 0 1 267.492 66.227 Q 267.562 66.409 267.484 66.592 A 0.667 0.667 0 0 1 267.425 66.7 Q 267.325 67 267.225 67.25 Q 267.125 67.5 267.025 67.8 Q 266.925 68 266.825 68.25 Q 266.725 68.5 266.625 68.7 A 0.619 0.619 0 0 1 266.531 69.041 Q 266.431 69.197 266.225 69.3 A 0.765 0.765 0 0 0 265.799 69.587 Q 265.698 69.716 265.625 69.9 Q 265.433 70.283 265.15 70.116 A 0.545 0.545 0 0 1 265.125 70.1 Q 264.763 70.1 264.647 70.182 A 0.165 0.165 0 0 0 264.625 70.2 Q 264.125 70.6 263.525 70.8 L 262.325 71.2 Q 261.225 71.4 260.125 71.75 Q 259.025 72.1 257.925 72.4 Q 257.457 72.556 257.171 72.59 A 1.235 1.235 0 0 1 257.025 72.6 A 11.789 11.789 0 0 0 256.013 72.813 A 10.711 10.711 0 0 0 255.875 72.85 A 9.742 9.742 0 0 0 254.888 73.175 A 8.973 8.973 0 0 0 254.825 73.2 A 0.337 0.337 0 0 1 254.585 73.3 A 0.444 0.444 0 0 1 254.575 73.3 A 0.557 0.557 0 0 0 254.45 73.315 Q 254.392 73.329 254.328 73.354 A 1.268 1.268 0 0 0 254.225 73.4 A 12.06 12.06 0 0 0 253.147 73.606 A 13.886 13.886 0 0 0 252.775 73.7 Q 252.025 73.9 251.325 74.2 A 0.992 0.992 0 0 1 251.071 74.318 Q 250.809 74.4 250.425 74.4 A 4.851 4.851 0 0 0 249.441 74.505 A 6.314 6.314 0 0 0 248.725 74.7 Q 247.725 74.9 246.725 75.05 Q 245.725 75.2 244.625 75.4 L 242.525 75.7 A 18.545 18.545 0 0 0 241.318 76.02 Q 240.733 76.197 240.225 76.4 Q 240.072 76.477 239.86 76.553 A 5.681 5.681 0 0 1 239.725 76.6 Q 239.425 76.7 239.225 76.8 Q 237.125 77.2 235.325 78.3 L 234.525 78.6 A 4.442 4.442 0 0 0 232.987 79.094 A 5.018 5.018 0 0 0 232.975 79.1 Q 232.225 79.5 231.425 79.9 Q 230.825 80.3 230.625 80.5 Q 230.491 80.634 230.356 80.859 A 3.652 3.652 0 0 0 230.225 81.1 A 8.084 8.084 0 0 0 229.94 81.89 Q 229.816 82.306 229.763 82.679 A 3.742 3.742 0 0 0 229.725 83.2 A 9.816 9.816 0 0 1 229.82 84.263 A 8.669 8.669 0 0 1 229.825 84.55 Q 229.825 85.2 229.925 86 Q 230.105 87.082 229.879 88.001 A 4.097 4.097 0 0 1 229.825 88.2 Q 229.825 88.469 229.735 88.828 A 5.165 5.165 0 0 1 229.625 89.2 Q 229.226 89.798 228.827 89.999 A 1.037 1.037 0 0 1 228.825 90 A 2.272 2.272 0 0 1 228.459 90.123 Q 227.304 90.399 226.525 89.1 A 3.352 3.352 0 0 1 226.157 88.42 Q 225.941 87.894 225.825 87.2 Q 225.725 86.3 225.525 85.4 Q 225.325 84.5 225.125 83.5 Q 225.025 83.1 224.875 82.7 Q 224.725 82.3 224.525 81.9 L 223.925 80.7 Q 223.625 80.1 223.225 79.6 A 28.162 28.162 0 0 1 223.054 79.252 Q 222.802 78.73 222.725 78.5 Z M 11.025 75.6 L 10.725 74.7 A 3.807 3.807 0 0 1 10.347 73.358 A 4.675 4.675 0 0 1 10.325 72.9 Q 10.425 71.6 10.425 70.3 Q 10.425 69 10.225 67.7 A 5.207 5.207 0 0 1 10.139 67.095 A 4.32 4.32 0 0 1 10.125 66.75 L 10.125 65.8 A 13.03 13.03 0 0 1 10.035 64.653 A 15.378 15.378 0 0 1 10.025 64.1 L 10.025 62.4 L 10.025 61.1 A 8.285 8.285 0 0 0 9.993 60.393 A 10.601 10.601 0 0 0 9.925 59.8 Q 9.825 59.2 9.825 58.6 L 9.825 57.4 L 9.825 40.6 Q 9.825 40.061 9.766 39.76 A 1.3 1.3 0 0 0 9.725 39.6 A 6.945 6.945 0 0 1 9.566 38.755 A 5.426 5.426 0 0 1 9.525 38.1 Q 9.525 37.4 9.325 36.7 A 3.956 3.956 0 0 1 9.331 36.469 Q 9.344 36.248 9.384 36.109 A 0.63 0.63 0 0 1 9.425 36 A 8.143 8.143 0 0 0 9.684 34.845 Q 9.825 33.928 9.825 32.8 Q 9.725 31 9.775 29.25 A 41.043 41.043 0 0 0 9.792 28.078 A 42.861 42.861 0 0 0 9.725 25.7 L 9.725 24.8 L 9.525 24.6 A 0.183 0.183 0 0 0 9.495 24.556 Q 9.391 24.445 9.151 24.674 A 1.569 1.569 0 0 0 9.125 24.7 L 8.725 25 A 3.846 3.846 0 0 1 8.627 25.185 Q 8.577 25.272 8.527 25.348 A 2.312 2.312 0 0 1 8.525 25.35 A 1.531 1.531 0 0 1 8.444 25.459 Q 8.356 25.569 8.225 25.7 A 2.527 2.527 0 0 1 6.872 26.618 A 3.39 3.39 0 0 1 6.525 26.7 A 1.855 1.855 0 0 1 6.314 26.748 Q 5.763 26.838 5.425 26.5 Q 5.125 26.3 4.825 26.05 Q 4.595 25.859 4.424 25.696 A 5.149 5.149 0 0 1 4.325 25.6 L 3.275 24.55 Q 2.725 24 2.125 23.5 A 4.886 4.886 0 0 1 0.603 21.5 A 6.415 6.415 0 0 1 0.325 20.7 L 0.025 19.6 Q -0.075 18.6 0.225 17.6 L 0.625 16.4 Q 0.825 15.8 1.025 15.3 A 2.858 2.858 0 0 1 1.212 14.766 Q 1.409 14.353 1.725 14.1 Q 2.225 13.7 2.825 13.4 Q 3.025 13.4 3.225 13.35 Q 3.383 13.311 3.479 13.302 A 0.541 0.541 0 0 1 3.525 13.3 A 2.437 2.437 0 0 0 3.627 13.229 Q 3.825 13.081 3.825 13 A 0.993 0.993 0 0 1 3.897 12.853 Q 4.085 12.544 4.404 12.69 A 0.713 0.713 0 0 1 4.425 12.7 A 0.183 0.183 0 0 0 4.53 12.671 Q 4.602 12.623 4.619 12.493 A 0.693 0.693 0 0 0 4.625 12.4 Q 4.708 12.317 4.859 12.303 A 0.703 0.703 0 0 1 4.925 12.3 A 1.336 1.336 0 0 1 5.27 12.545 A 1.274 1.274 0 0 1 5.275 12.55 A 1.334 1.334 0 0 0 5.623 12.799 A 1.421 1.421 0 0 0 5.625 12.8 A 0.222 0.222 0 0 0 5.698 12.845 Q 5.83 12.9 6.125 12.9 A 1.926 1.926 0 0 1 6.575 12.738 A 1.633 1.633 0 0 1 6.925 12.7 L 7.725 12.7 A 3.729 3.729 0 0 0 8.403 12.635 A 4.572 4.572 0 0 0 8.775 12.55 A 16.554 16.554 0 0 1 9.508 12.367 A 13.99 13.99 0 0 1 9.825 12.3 Q 10.125 12.1 10.325 11.8 L 10.625 10.5 L 10.925 9 A 3.874 3.874 0 0 1 11.079 8.442 A 3.186 3.186 0 0 1 11.225 8.1 L 11.625 7.3 L 12.025 6.7 Q 13.025 4.9 15.225 4.4 A 1.769 1.769 0 0 1 15.319 4.356 Q 15.41 4.317 15.473 4.305 A 0.282 0.282 0 0 1 15.525 4.3 Q 15.608 4.3 15.691 4.231 A 0.497 0.497 0 0 0 15.725 4.2 A 1.89 1.89 0 0 1 16.316 4.1 A 1.801 1.801 0 0 1 16.325 4.1 L 16.925 4.1 L 17.725 4.1 Q 19.548 4.196 20.542 5.672 A 4.455 4.455 0 0 1 20.625 5.8 Q 20.825 6.1 21.025 6.5 A 4.014 4.014 0 0 1 21.276 7.125 A 3.577 3.577 0 0 1 21.325 7.3 A 1.037 1.037 0 0 0 21.53 7.586 Q 21.807 7.854 22.263 7.808 A 1.5 1.5 0 0 0 22.325 7.8 Q 22.408 7.717 22.559 7.703 A 0.703 0.703 0 0 1 22.625 7.7 L 24.825 7.1 Q 25.925 6.8 27.025 6.4 Q 28.325 5.9 29.625 5.55 Q 30.925 5.2 32.225 4.8 Q 33.325 4.4 34.475 4.1 Q 35.625 3.8 36.725 3.5 L 39.125 2.9 Q 40.825 2.4 42.625 2 A 289.559 289.559 0 0 0 46.072 1.212 A 266.831 266.831 0 0 0 46.125 1.2 A 9.417 9.417 0 0 0 47.756 0.673 A 10.492 10.492 0 0 0 47.925 0.6 Q 48.625 0.1 49.425 0.05 A 26.03 26.03 0 0 1 50.386 0.007 A 21.22 21.22 0 0 1 50.925 0 L 52.925 0 A 3.563 3.563 0 0 1 54.161 0.296 A 3.179 3.179 0 0 1 55.325 1.2 A 3.597 3.597 0 0 1 56.438 3.214 A 4.98 4.98 0 0 1 56.525 3.9 L 56.525 4.7 Q 56.525 6 55.625 6.9 A 13.3 13.3 0 0 1 54.627 7.806 A 10.412 10.412 0 0 1 53.825 8.4 A 0.337 0.337 0 0 1 53.585 8.5 A 0.444 0.444 0 0 1 53.575 8.5 A 0.557 0.557 0 0 0 53.45 8.515 Q 53.392 8.529 53.328 8.554 A 1.268 1.268 0 0 0 53.225 8.6 A 3.676 3.676 0 0 0 52.211 8.75 Q 51.805 8.866 51.382 9.072 A 6.133 6.133 0 0 0 51.325 9.1 Q 50.678 9.377 49.944 9.227 A 2.867 2.867 0 0 1 49.825 9.2 Q 49.325 9 48.825 9.05 Q 48.325 9.1 47.825 9.2 L 47.025 9.4 L 46.225 9.6 L 45.425 9.8 Q 45.025 9.9 44.525 10 Q 42.125 10.3 40.125 11.6 Q 39.925 11.8 39.525 11.8 A 2.902 2.902 0 0 0 39.211 11.816 Q 38.841 11.856 38.625 12 Q 38.225 12.1 37.875 12.3 Q 37.525 12.5 37.125 12.7 Q 36.725 12.9 36.225 13.1 L 35.225 13.5 Q 34.625 13.6 34.025 13.8 L 32.825 14.2 Q 32.525 14.3 32.275 14.4 Q 32.025 14.5 31.825 14.6 Q 30.825 14.9 29.875 15.4 Q 28.925 15.9 28.025 16.5 L 27.525 16.8 A 5.642 5.642 0 0 0 27.156 16.907 Q 26.969 16.967 26.764 17.046 A 9.89 9.89 0 0 0 26.625 17.1 L 25.625 17.5 A 5.693 5.693 0 0 0 24.641 17.794 A 6.24 6.24 0 0 0 24.625 17.8 A 6.84 6.84 0 0 0 23.813 18.191 A 7.737 7.737 0 0 0 23.625 18.3 A 0.879 0.879 0 0 1 23.584 18.338 Q 23.514 18.4 23.475 18.4 L 23.425 18.4 A 2.19 2.19 0 0 0 22.796 18.583 A 1.846 1.846 0 0 0 22.275 18.95 L 21.325 19.9 A 0.675 0.675 0 0 0 21.125 20.381 A 0.886 0.886 0 0 0 21.125 20.4 L 21.125 28.5 Q 21.125 28.9 21.075 29.3 A 10.439 10.439 0 0 1 21.017 29.697 Q 20.983 29.905 20.938 30.134 A 17.262 17.262 0 0 1 20.925 30.2 A 5.732 5.732 0 0 1 20.92 30.443 Q 20.905 30.809 20.838 30.971 A 0.429 0.429 0 0 1 20.825 31 Q 20.825 32.1 21.825 31.8 Q 23.225 31.4 24.675 31 Q 26.125 30.6 27.425 30.2 Q 28.825 29.7 30.075 29.3 Q 31.325 28.9 32.625 28.5 A 6.591 6.591 0 0 0 33.128 28.38 A 5.051 5.051 0 0 0 33.525 28.25 Q 33.925 28.1 34.325 28 Q 35.925 27.4 37.575 26.8 A 33.163 33.163 0 0 1 40.424 25.903 A 30.238 30.238 0 0 1 40.825 25.8 A 13.852 13.852 0 0 0 42.909 25.255 A 13.325 13.325 0 0 0 42.925 25.25 Q 43.925 24.9 44.925 24.6 Q 45.825 24.3 46.725 24.1 Q 47.625 23.9 48.425 23.7 A 4.858 4.858 0 0 1 49.225 23.633 A 4.815 4.815 0 0 1 49.625 23.65 Q 50.225 23.7 50.725 24 A 1.668 1.668 0 0 0 51.009 24.11 A 2.045 2.045 0 0 0 51.175 24.15 A 1.937 1.937 0 0 1 51.454 24.227 A 1.593 1.593 0 0 1 51.625 24.3 A 1.004 1.004 0 0 1 52.043 24.385 Q 52.263 24.484 52.425 24.7 A 3.846 3.846 0 0 1 52.61 24.798 Q 52.697 24.848 52.773 24.898 A 2.312 2.312 0 0 1 52.775 24.9 A 1.531 1.531 0 0 1 52.884 24.981 Q 52.994 25.069 53.125 25.2 L 53.425 25.5 A 0.319 0.319 0 0 0 53.43 25.556 Q 53.435 25.587 53.447 25.611 A 0.148 0.148 0 0 0 53.475 25.65 A 0.111 0.111 0 0 1 53.498 25.686 Q 53.522 25.746 53.525 25.872 A 1.475 1.475 0 0 1 53.525 25.9 A 21.694 21.694 0 0 1 53.799 26.32 Q 54.334 27.166 54.375 27.45 A 10.503 10.503 0 0 1 54.401 27.65 Q 54.448 28.034 54.525 28.8 Q 54.525 29.347 54.276 29.561 A 0.519 0.519 0 0 1 54.225 29.6 L 53.925 30 A 2.624 2.624 0 0 1 52.647 31.448 A 3.623 3.623 0 0 1 52.325 31.6 Q 51.925 31.8 51.575 32.05 Q 51.236 32.292 50.756 32.487 A 5.623 5.623 0 0 1 50.725 32.5 L 50.225 32.8 A 1.474 1.474 0 0 1 49.883 33.059 A 1.16 1.16 0 0 1 49.325 33.2 Q 48.225 33.4 47.175 33.8 Q 46.125 34.2 45.025 34.5 A 1.373 1.373 0 0 0 44.653 34.658 Q 44.439 34.786 44.225 35 Q 43.525 35.6 42.525 35.9 A 5.068 5.068 0 0 0 41.919 36.091 A 4.513 4.513 0 0 0 41.775 36.15 Q 41.474 36.279 41.063 36.371 A 6.26 6.26 0 0 1 40.925 36.4 Q 39.225 36.9 37.575 37.6 Q 35.925 38.3 34.225 39 A 64.039 64.039 0 0 1 32.869 39.562 A 69.939 69.939 0 0 1 32.775 39.6 Q 32.025 39.9 31.225 40.1 Q 30.725 40.3 30.125 40.55 Q 29.525 40.8 29.025 41.2 Q 28.625 41.4 28.225 41.55 A 37.217 37.217 0 0 0 27.828 41.702 Q 27.591 41.794 27.325 41.9 L 24.325 42.9 Q 22.825 43.4 21.225 43.9 A 1.412 1.412 0 0 0 21.095 43.905 Q 20.968 43.917 20.891 43.954 A 0.241 0.241 0 0 0 20.825 44 A 1.192 1.192 0 0 0 20.606 44.112 Q 20.489 44.191 20.42 44.289 A 0.53 0.53 0 0 0 20.325 44.6 A 16.207 16.207 0 0 0 20.205 45.454 A 14.012 14.012 0 0 0 20.175 45.75 A 12.112 12.112 0 0 0 20.129 46.515 A 10.431 10.431 0 0 0 20.125 46.8 L 20.125 47.4 A 1.836 1.836 0 0 1 20.287 47.897 A 2.545 2.545 0 0 1 20.325 48.35 L 20.325 49.4 Q 20.325 49.553 20.207 49.825 A 3.598 3.598 0 0 1 20.125 50 Q 19.725 50.4 19.725 51.1 Q 19.625 51.7 19.625 52.3 A 3.774 3.774 0 0 1 19.427 53.495 A 4.593 4.593 0 0 1 19.425 53.5 A 6.646 6.646 0 0 0 19.366 54.107 Q 19.358 54.25 19.358 54.389 A 4.95 4.95 0 0 0 19.375 54.8 Q 19.425 55.4 19.725 56 Q 20.025 56.6 20.025 57.3 A 8.41 8.41 0 0 0 20.011 57.794 Q 20.011 59.3 20.525 61.1 Q 20.601 61.329 20.619 61.793 A 7.948 7.948 0 0 1 20.625 62.1 Q 20.325 63 20.525 64.4 L 20.525 65.35 A 5.459 5.459 0 0 1 20.459 66.211 A 4.903 4.903 0 0 1 20.425 66.4 Q 20.23 66.693 20.416 67.464 A 4.975 4.975 0 0 0 20.425 67.5 A 1.906 1.906 0 0 0 20.436 67.698 Q 20.448 67.817 20.475 67.95 A 2.842 2.842 0 0 1 20.509 68.159 Q 20.525 68.288 20.525 68.4 Q 20.625 69.7 20.775 71 Q 20.925 72.3 21.025 73.6 A 3.589 3.589 0 0 1 21.075 74.152 Q 21.078 74.458 21.025 74.75 Q 20.925 75.3 20.725 75.8 A 6.921 6.921 0 0 1 20.393 76.911 Q 20.149 77.523 19.799 78.002 A 4.221 4.221 0 0 1 19.725 78.1 Q 19.325 78.6 19.025 79.15 Q 18.725 79.7 18.425 80.2 A 0.915 0.915 0 0 1 18.155 80.601 A 1.208 1.208 0 0 1 18.025 80.7 A 4.019 4.019 0 0 0 17.782 80.875 Q 17.66 80.97 17.561 81.065 A 2.339 2.339 0 0 0 17.525 81.1 Q 16.625 81.5 15.825 81 Q 15.525 80.8 15.225 80.55 A 1.864 1.864 0 0 1 14.86 80.135 A 2.336 2.336 0 0 1 14.725 79.9 Q 13.925 78.7 12.725 77.9 A 6.45 6.45 0 0 1 12.113 77.322 A 5.24 5.24 0 0 1 11.725 76.85 A 6.075 6.075 0 0 1 11.222 76.023 A 7.238 7.238 0 0 1 11.025 75.6 Z M 288.925 85.5 L 288.925 84.9 A 6.641 6.641 0 0 0 288.958 84.239 A 6.239 6.239 0 0 0 288.825 82.95 Q 288.625 82 288.525 81 Q 288.525 80.6 288.425 80.4 L 287.325 78.3 A 1.884 1.884 0 0 1 287.213 78.176 Q 287.026 77.951 286.725 77.5 A 9.683 9.683 0 0 0 286.372 76.76 A 7.664 7.664 0 0 0 286.075 76.25 Q 285.725 75.7 285.325 75.1 Q 285.125 74.7 284.825 74.4 Q 284.525 74.1 284.225 73.7 Q 284.027 73.402 283.828 73.006 A 9.077 9.077 0 0 1 283.825 73 A 1.904 1.904 0 0 0 283.402 72.446 A 2.337 2.337 0 0 0 283.225 72.3 L 282.925 71.8 Q 282.525 71.1 282.175 70.5 Q 281.825 69.9 281.525 69.3 L 281.225 68.7 A 44.082 44.082 0 0 0 280.431 66.35 A 40.325 40.325 0 0 0 280.375 66.2 A 308.886 308.886 0 0 0 279.672 64.344 A 349.489 349.489 0 0 0 279.425 63.7 Q 279.125 62.9 278.875 62.2 Q 278.625 61.5 278.225 60.8 Q 277.525 59.3 277.325 57.6 Q 277.225 56.4 277.525 55.1 Q 277.825 54.3 278.425 53.7 A 5.714 5.714 0 0 1 279.855 52.803 Q 281.159 52.245 282.625 52.5 L 283.725 52.7 A 4.317 4.317 0 0 1 284.525 53.13 Q 285.112 53.537 285.425 54.1 Q 285.825 54.8 286.125 55.55 A 5.967 5.967 0 0 1 286.443 56.652 A 7.143 7.143 0 0 1 286.525 57.2 Q 286.725 57.8 286.925 58.45 A 12.859 12.859 0 0 0 287.247 59.367 A 15.238 15.238 0 0 0 287.425 59.8 Q 287.925 60.9 288.525 62 A 5.772 5.772 0 0 0 289.228 63.008 A 4.92 4.92 0 0 0 289.725 63.5 Q 290.225 63.9 290.825 64.4 A 17.129 17.129 0 0 1 291.636 65.119 A 14.752 14.752 0 0 1 291.925 65.4 L 294.025 67.5 A 0.952 0.952 0 0 1 294.302 67.712 A 1.169 1.169 0 0 1 294.375 67.8 A 2.776 2.776 0 0 1 294.554 68.069 A 2.352 2.352 0 0 1 294.625 68.2 Q 294.892 68.378 295.239 68.318 A 1.193 1.193 0 0 0 295.325 68.3 Q 296.325 68 297.325 67.2 Q 298.925 65.9 299.925 64.5 A 7.323 7.323 0 0 0 301.046 62.063 A 8.993 8.993 0 0 0 301.225 61.2 Q 301.425 59.5 300.225 58.2 A 1.033 1.033 0 0 0 300.029 57.925 A 0.86 0.86 0 0 0 299.625 57.7 Q 298.925 57.3 298.275 56.95 A 5.948 5.948 0 0 0 297.263 56.524 A 7.079 7.079 0 0 0 296.825 56.4 Q 296.025 56.1 295.425 55.5 A 1.518 1.518 0 0 0 294.769 55.031 Q 294.525 54.938 294.225 54.9 A 7.723 7.723 0 0 1 293.192 54.526 A 6.861 6.861 0 0 1 292.925 54.4 Q 292.325 54.1 291.825 53.7 A 9.395 9.395 0 0 0 291.037 53.108 A 7.886 7.886 0 0 0 290.625 52.85 Q 290.025 52.5 289.425 52.1 Q 288.825 51.8 288.275 51.4 A 28.913 28.913 0 0 1 287.288 50.65 A 26.418 26.418 0 0 1 287.225 50.6 A 13.77 13.77 0 0 1 285.963 49.584 A 12.724 12.724 0 0 1 285.925 49.55 Q 285.325 49 284.725 48.5 Q 284.325 48.3 284.225 48.1 Q 283.725 47.5 283.175 46.95 A 9.507 9.507 0 0 1 282.394 46.061 A 11.09 11.09 0 0 1 282.125 45.7 Q 281.825 45.3 281.525 44.95 Q 281.225 44.6 280.825 44.2 Q 280.425 43.8 280.075 43.35 A 3.928 3.928 0 0 1 279.551 42.462 A 3.681 3.681 0 0 1 279.525 42.4 L 278.625 40.9 Q 278.125 39.9 277.725 38.9 Q 277.325 37.9 276.825 36.9 Q 276.425 35.8 276.075 34.7 Q 275.725 33.6 275.525 32.5 A 18.79 18.79 0 0 0 275.38 31.539 A 15.713 15.713 0 0 0 275.275 31 Q 275.125 30.3 275.025 29.6 Q 274.925 28.5 274.925 27.45 Q 274.925 26.4 274.825 25.3 Q 274.825 24 275.025 22.7 Q 275.225 21.4 275.525 20.1 L 275.925 18.5 Q 276.125 17.7 276.325 17 Q 276.525 16.5 276.725 16.05 A 5.928 5.928 0 0 0 276.909 15.586 A 4.538 4.538 0 0 0 277.025 15.2 A 17.324 17.324 0 0 1 278.298 12.575 A 21.435 21.435 0 0 1 279.325 11 Q 279.825 10.3 280.375 9.65 Q 280.925 9 281.525 8.4 A 15.787 15.787 0 0 0 282.259 7.612 A 18.323 18.323 0 0 0 282.525 7.3 A 14.495 14.495 0 0 0 283.219 6.4 A 12.868 12.868 0 0 0 283.425 6.1 A 9.041 9.041 0 0 1 284.919 4.548 A 7.417 7.417 0 0 1 286.425 3.6 Q 287.816 2.864 289.542 2.864 A 8.653 8.653 0 0 1 290.325 2.9 A 11.546 11.546 0 0 1 294.896 4.644 A 13.637 13.637 0 0 1 295.425 5 Q 296.225 5.6 297.075 6.25 Q 297.925 6.9 298.725 7.6 A 15.588 15.588 0 0 1 301.468 10.404 A 14.251 14.251 0 0 1 302.025 11.2 L 303.225 13 Q 303.825 13.9 304.325 14.8 A 5.553 5.553 0 0 1 304.683 15.338 A 4.704 4.704 0 0 1 304.825 15.6 A 3.335 3.335 0 0 1 305.044 16.168 A 4.089 4.089 0 0 1 305.125 16.5 Q 305.325 17.4 305.275 18.25 A 10.815 10.815 0 0 1 305.095 19.664 A 12.235 12.235 0 0 1 305.025 20 L 304.725 20.8 A 15.11 15.11 0 0 0 304.355 21.455 A 18.625 18.625 0 0 0 304.125 21.9 A 17.777 17.777 0 0 1 303.759 22.594 A 14.393 14.393 0 0 1 303.525 23 Q 303.325 23.4 303.075 23.75 Q 302.825 24.1 302.625 24.4 A 5.738 5.738 0 0 0 302.057 25.598 A 4.428 4.428 0 0 0 301.825 27 L 301.825 36.7 A 11.95 11.95 0 0 1 301.244 40.444 A 11.391 11.391 0 0 1 301.225 40.5 A 0.319 0.319 0 0 1 301.22 40.556 Q 301.215 40.587 301.203 40.611 A 0.148 0.148 0 0 1 301.175 40.65 A 0.111 0.111 0 0 0 301.152 40.686 Q 301.128 40.746 301.125 40.872 A 1.475 1.475 0 0 0 301.125 40.9 A 1.353 1.353 0 0 0 301.167 41.247 A 0.985 0.985 0 0 0 301.425 41.7 L 302.325 42.3 Q 303.425 43 304.375 43.85 Q 305.325 44.7 306.325 45.5 Q 306.925 46 307.425 46.65 A 24.53 24.53 0 0 1 308.011 47.443 A 20.209 20.209 0 0 1 308.325 47.9 Q 308.725 48.4 309.025 48.95 Q 309.325 49.5 309.625 50 A 4.949 4.949 0 0 1 310.291 51.324 A 5.748 5.748 0 0 1 310.375 51.6 Q 310.625 52.5 310.825 53.4 L 310.825 53.8 A 5.094 5.094 0 0 0 310.775 54.478 Q 310.772 54.817 310.811 55.176 A 6.862 6.862 0 0 0 310.825 55.3 L 311.025 56.9 A 1.906 1.906 0 0 0 311.036 57.098 Q 311.048 57.217 311.075 57.35 A 0.876 0.876 0 0 1 311.092 57.522 Q 311.092 57.625 311.069 57.735 A 1.397 1.397 0 0 1 311.025 57.9 L 310.725 60 A 1.191 1.191 0 0 0 310.69 60.1 Q 310.587 60.443 310.821 60.562 A 0.495 0.495 0 0 0 310.925 60.6 A 0.666 0.666 0 0 1 311.031 60.608 Q 311.216 60.638 311.225 60.785 A 0.253 0.253 0 0 1 311.225 60.8 Q 311.514 60.896 311.339 61.271 A 1.201 1.201 0 0 1 311.325 61.3 Q 311.133 61.683 310.85 61.516 A 0.545 0.545 0 0 1 310.825 61.5 A 0.144 0.144 0 0 0 310.82 61.46 Q 310.807 61.416 310.762 61.404 A 0.147 0.147 0 0 0 310.725 61.4 A 0.767 0.767 0 0 0 310.656 61.38 Q 310.422 61.326 310.332 61.487 A 0.307 0.307 0 0 0 310.325 61.5 Q 310.225 61.8 310.175 62.1 A 3.407 3.407 0 0 0 310.141 62.382 Q 310.129 62.527 310.126 62.689 A 6.069 6.069 0 0 0 310.125 62.8 A 2.175 2.175 0 0 0 309.99 63.03 Q 309.765 63.479 309.925 63.8 A 1.412 1.412 0 0 1 309.92 63.93 Q 309.908 64.057 309.871 64.134 A 0.241 0.241 0 0 1 309.825 64.2 A 0.759 0.759 0 0 0 309.6 64.742 Q 309.599 64.822 309.61 64.908 A 1.367 1.367 0 0 0 309.625 65 A 0.308 0.308 0 0 1 309.577 65.159 Q 309.517 65.261 309.379 65.362 A 1.414 1.414 0 0 1 309.325 65.4 A 1.639 1.639 0 0 0 308.712 65.942 Q 308.565 66.151 308.456 66.422 A 3.099 3.099 0 0 0 308.425 66.5 Q 307.925 67.8 307.275 68.95 Q 306.625 70.1 305.825 71.2 Q 305.025 72.3 304.175 73.35 Q 303.325 74.4 302.225 75.3 Q 301.325 76 300.325 76.65 Q 299.325 77.3 298.225 77.8 A 1.986 1.986 0 0 0 297.775 77.976 A 2.682 2.682 0 0 0 297.425 78.2 L 296.225 78.8 A 2.483 2.483 0 0 0 295.4 79.063 Q 295.013 79.261 294.625 79.6 L 294.025 80 A 1.338 1.338 0 0 0 293.832 80.252 Q 293.657 80.539 293.525 81 L 293.525 83.7 L 293.525 84.5 Q 293.525 84.9 293.425 85.3 A 0.881 0.881 0 0 0 293.353 85.509 Q 293.332 85.608 293.327 85.721 A 1.684 1.684 0 0 0 293.325 85.8 A 1.494 1.494 0 0 1 293.311 86.011 Q 293.288 86.175 293.225 86.3 Q 293.125 86.7 293.025 87.15 A 5.62 5.62 0 0 1 292.871 87.702 A 7.102 7.102 0 0 1 292.725 88.1 A 2.125 2.125 0 0 1 292.383 88.729 Q 291.801 89.447 290.625 89.3 A 1.793 1.793 0 0 1 290.086 89.074 A 1.465 1.465 0 0 1 289.525 88.4 Q 289.325 87.6 289.125 86.9 Q 288.925 86.2 288.925 85.5 Z M 161.325 112.5 L 161.025 111.7 Q 160.825 110.9 160.625 110 A 19.799 19.799 0 0 1 160.414 108.914 A 16.178 16.178 0 0 1 160.325 108.3 L 160.025 106.3 Q 159.925 105.8 159.875 105.25 Q 159.825 104.7 159.725 104.2 Q 159.725 103.6 159.675 103.05 A 15.023 15.023 0 0 0 159.573 102.206 A 17.357 17.357 0 0 0 159.525 101.9 L 159.525 100.95 A 4.546 4.546 0 0 0 159.482 100.338 A 5.501 5.501 0 0 0 159.425 100 L 159.425 99.2 Q 159.425 98.8 159.325 98.4 A 11.163 11.163 0 0 0 159.298 97.639 A 12.957 12.957 0 0 0 159.275 97.35 A 12.112 12.112 0 0 1 159.229 96.585 A 10.431 10.431 0 0 1 159.225 96.3 Q 159.125 95.6 159.125 94.9 Q 159.125 94.2 159.025 93.5 L 158.725 90.8 L 158.725 89.9 A 9.816 9.816 0 0 0 158.82 88.837 A 8.669 8.669 0 0 0 158.825 88.55 A 9.251 9.251 0 0 1 158.881 87.547 A 10.52 10.52 0 0 1 158.925 87.2 L 158.925 86.4 Q 159.025 85.5 158.875 84.65 A 4.237 4.237 0 0 1 158.811 83.912 Q 158.811 83.445 158.911 82.964 A 5.103 5.103 0 0 1 158.925 82.9 Q 158.925 82.1 158.875 81.2 Q 158.825 80.3 158.825 79.5 Q 158.825 78.993 158.897 78.7 A 1.265 1.265 0 0 1 158.925 78.6 Q 159.025 77.5 158.875 76.45 A 14.568 14.568 0 0 1 158.726 74.525 A 13.395 13.395 0 0 1 158.725 74.4 A 2.627 2.627 0 0 0 158.713 74.143 Q 158.701 74.016 158.675 73.909 A 1.158 1.158 0 0 0 158.625 73.75 A 2.387 2.387 0 0 0 158.518 73.522 Q 158.438 73.369 158.325 73.2 A 3.851 3.851 0 0 1 157.672 71.495 A 5.042 5.042 0 0 1 157.625 70.8 A 7.958 7.958 0 0 0 157.615 70.392 Q 157.594 69.975 157.525 69.7 Q 157.525 69.193 157.597 68.9 A 1.265 1.265 0 0 1 157.625 68.8 Q 157.791 67.387 157.612 66.181 A 7.695 7.695 0 0 0 157.525 65.7 L 157.525 64.75 Q 157.525 64.3 157.425 63.9 L 157.425 62.45 Q 157.425 61.7 157.225 61 L 157.225 60.9 Q 157.125 59.6 157.075 58.4 Q 157.025 57.2 156.925 55.9 L 156.925 55.4 Q 156.725 54 156.675 52.55 Q 156.625 51.1 156.325 49.6 Q 156.225 49.1 156.225 48.55 L 156.225 47.5 Q 156.225 46.6 156.125 45.75 Q 156.025 44.9 155.825 44 Q 155.825 43.6 155.775 43.2 Q 155.725 42.8 155.725 42.4 L 155.425 40.3 Q 155.325 40 155.275 39.7 A 3.407 3.407 0 0 1 155.241 39.418 Q 155.229 39.273 155.226 39.111 A 6.069 6.069 0 0 1 155.225 39 L 154.925 35.9 A 1.703 1.703 0 0 0 154.808 35.287 A 2.091 2.091 0 0 0 154.725 35.1 A 32.772 32.772 0 0 0 154.512 33.662 A 36.287 36.287 0 0 0 154.475 33.45 Q 154.325 32.6 154.425 31.8 A 7.958 7.958 0 0 0 154.415 31.392 Q 154.394 30.975 154.325 30.7 A 7.499 7.499 0 0 1 154.227 29.612 A 8.331 8.331 0 0 1 154.225 29.45 L 154.225 28.2 Q 154.225 26.8 154.175 25.4 A 25.839 25.839 0 0 1 154.158 24.478 A 23.18 23.18 0 0 1 154.225 22.7 A 29.889 29.889 0 0 1 154.272 21.003 A 27.523 27.523 0 0 1 154.275 20.95 Q 154.325 20.1 154.425 19.3 L 154.425 18.3 Q 154.425 17.5 154.125 16.8 Q 153.927 16.502 153.728 16.106 A 8.51 8.51 0 0 1 153.725 16.1 Q 153.625 15.8 153.525 15.45 Q 153.425 15.101 153.226 14.702 A 4.263 4.263 0 0 0 153.225 14.7 Q 152.821 13.569 153.265 12.438 A 4.13 4.13 0 0 1 153.525 11.9 A 0.319 0.319 0 0 1 153.53 11.844 Q 153.535 11.813 153.547 11.789 A 0.148 0.148 0 0 1 153.575 11.75 Q 153.616 11.709 153.624 11.633 A 0.352 0.352 0 0 0 153.625 11.6 A 3.279 3.279 0 0 1 154.116 10.737 Q 154.364 10.419 154.703 10.119 A 5.563 5.563 0 0 1 154.725 10.1 A 4.72 4.72 0 0 0 155.747 9.07 A 4.051 4.051 0 0 0 156.325 7.9 A 5.029 5.029 0 0 1 157.434 6.259 A 4.804 4.804 0 0 1 158.125 5.7 Q 158.425 5.5 158.675 5.35 Q 158.925 5.2 159.225 5.2 A 1.218 1.218 0 0 0 159.512 5.084 Q 159.797 4.928 160.125 4.6 Q 160.206 4.519 160.419 4.504 A 1.484 1.484 0 0 1 160.525 4.5 L 162.525 4.8 A 1.479 1.479 0 0 1 163.051 4.891 A 1.329 1.329 0 0 1 163.525 5.2 Q 163.925 5.6 164.275 5.9 A 1.332 1.332 0 0 1 164.688 6.549 A 1.714 1.714 0 0 1 164.725 6.7 L 165.325 7.3 A 1.889 1.889 0 0 0 165.572 7.511 Q 165.949 7.775 166.325 7.7 Q 166.825 7.6 167.225 7.7 A 3.818 3.818 0 0 1 167.875 7.929 A 4.35 4.35 0 0 1 168.025 8 Q 168.625 8.3 169.275 8.5 Q 169.925 8.7 170.525 8.9 Q 170.925 9 171.275 9.2 Q 171.625 9.4 172.025 9.6 Q 173.225 10.1 174.425 10.65 Q 175.625 11.2 176.725 12 Q 177.925 12.8 179.175 13.65 Q 180.425 14.5 181.425 15.5 L 185.925 19.3 Q 186.525 19.7 187.025 20.25 Q 187.525 20.8 188.025 21.3 Q 189.025 22.3 190.225 23.2 A 9.859 9.859 0 0 1 191.51 24.152 A 9.015 9.015 0 0 1 191.675 24.3 Q 192.325 24.9 193.025 25.5 Q 193.825 26.2 194.525 27 L 195.925 28.6 Q 196.825 29.6 197.525 30.7 Q 198.225 31.8 198.625 33.1 L 199.525 35.5 Q 200.025 36.7 200.325 37.95 A 8.32 8.32 0 0 1 200.549 39.782 Q 200.555 40.184 200.525 40.6 L 200.525 42.1 A 9.629 9.629 0 0 1 200.558 42.9 A 9.717 9.717 0 0 1 200.425 44.5 A 23.578 23.578 0 0 1 199.998 46.523 A 21.423 21.423 0 0 1 199.925 46.8 Q 199.825 47.3 199.725 47.75 Q 199.625 48.2 199.525 48.7 A 24.952 24.952 0 0 1 198.191 51.781 A 27.626 27.626 0 0 1 198.025 52.1 Q 197.625 52.8 197.225 53.55 A 24.914 24.914 0 0 1 196.628 54.605 A 29.11 29.11 0 0 1 196.325 55.1 Q 196.125 55.5 195.825 55.8 Q 194.825 57.1 193.675 58.3 Q 192.525 59.5 191.225 60.6 A 13.535 13.535 0 0 0 190.525 61.163 A 14.843 14.843 0 0 0 190.425 61.25 A 16.292 16.292 0 0 0 189.725 61.901 A 17.892 17.892 0 0 0 189.625 62 A 0.909 0.909 0 0 1 189.519 62.162 Q 189.459 62.237 189.379 62.311 A 1.934 1.934 0 0 1 189.275 62.4 A 5.849 5.849 0 0 0 188.982 62.65 A 4.855 4.855 0 0 0 188.825 62.8 L 187.675 63.95 A 9.507 9.507 0 0 0 186.894 64.839 A 11.09 11.09 0 0 0 186.625 65.2 L 186.325 65.6 Q 185.625 66.2 185.025 66.9 Q 184.425 67.6 183.725 68.2 Q 183.325 68.6 182.825 69.05 Q 182.325 69.5 181.825 70 L 181.625 70.2 L 181.325 70.5 A 0.952 0.952 0 0 1 181.113 70.777 A 1.169 1.169 0 0 1 181.025 70.85 A 3.503 3.503 0 0 0 180.775 71.057 A 4.218 4.218 0 0 0 180.625 71.2 L 179.425 72.4 A 25.283 25.283 0 0 1 178.222 73.529 A 22.728 22.728 0 0 1 178.025 73.7 Q 177.325 74.3 176.525 75 A 1.348 1.348 0 0 1 176.42 75.094 Q 176.363 75.14 176.296 75.186 A 2.288 2.288 0 0 1 176.275 75.2 A 0.656 0.656 0 0 0 176.122 75.344 Q 176.069 75.413 176.025 75.5 Q 175.625 75.9 175.125 76.2 A 8.784 8.784 0 0 0 174.375 76.706 A 10.126 10.126 0 0 0 174.125 76.9 A 1.045 1.045 0 0 1 173.816 77.118 A 0.94 0.94 0 0 1 173.425 77.2 Q 173.034 77.33 172.729 77.376 A 2.075 2.075 0 0 1 172.425 77.4 Q 171.725 77.4 171.225 78 A 10.175 10.175 0 0 0 170.725 78.539 A 12.252 12.252 0 0 0 170.425 78.9 L 169.625 79.9 L 167.325 82.9 Q 166.425 83.8 166.125 85.2 Q 166.025 85.9 165.925 86.65 A 13.611 13.611 0 0 1 165.719 87.803 A 15.502 15.502 0 0 1 165.625 88.2 A 10.08 10.08 0 0 0 165.356 89.924 A 12.215 12.215 0 0 0 165.325 90.8 Q 165.425 91.9 165.275 92.95 Q 165.125 94 165.025 95.1 L 165.025 95.7 A 10.734 10.734 0 0 0 165.091 96.871 A 12.093 12.093 0 0 0 165.125 97.15 Q 165.225 97.9 165.125 98.7 A 10.188 10.188 0 0 0 165.025 100.056 A 11.175 11.175 0 0 0 165.025 100.15 L 165.025 101.6 L 165.025 102.9 Q 165.025 103.5 164.925 104.1 Q 164.925 104.8 164.875 105.55 A 7.432 7.432 0 0 0 164.858 106.044 A 6.749 6.749 0 0 0 164.925 107 L 164.925 108 L 164.925 108.8 Q 164.925 109.172 164.839 109.63 A 6.465 6.465 0 0 1 164.825 109.7 A 11.163 11.163 0 0 1 164.798 110.461 A 12.957 12.957 0 0 1 164.775 110.75 Q 164.725 111.3 164.625 111.8 A 0.3 0.3 0 0 1 164.623 111.833 Q 164.62 111.867 164.607 111.883 A 0.038 0.038 0 0 1 164.575 111.9 Q 164.525 111.9 164.525 112 A 2.456 2.456 0 0 1 164.324 112.546 Q 163.967 113.226 163.225 113.3 Q 162.186 113.583 161.414 112.617 A 3.275 3.275 0 0 1 161.325 112.5 Z M 364.325 87.8 L 364.025 86.4 Q 363.925 84.9 363.625 83.4 A 64.998 64.998 0 0 0 363.119 81.094 A 72.726 72.726 0 0 0 362.925 80.3 A 1.359 1.359 0 0 0 362.915 80.135 Q 362.903 80.034 362.875 79.95 Q 362.828 79.809 362.825 79.625 A 1.564 1.564 0 0 1 362.825 79.6 Q 362.825 79.2 362.725 79 Q 362.425 77.5 361.125 76.8 Q 360.225 76.3 359.275 75.85 Q 358.325 75.4 357.325 75 L 354.825 73.8 A 3.76 3.76 0 0 1 354.027 73.255 Q 353.664 72.936 353.325 72.5 Q 352.225 71.3 351.325 70 Q 350.425 68.7 349.825 67.2 Q 349.625 66.6 349.375 66 Q 349.125 65.4 348.925 64.8 A 5.715 5.715 0 0 1 348.631 63.831 A 5.316 5.316 0 0 1 348.625 63.8 A 3.874 3.874 0 0 0 348.471 63.242 A 3.186 3.186 0 0 0 348.325 62.9 L 347.725 60.8 A 1.926 1.926 0 0 1 347.563 60.35 A 1.633 1.633 0 0 1 347.525 60 Q 347.425 59.3 347.375 58.65 A 6.477 6.477 0 0 0 347.235 57.733 A 7.675 7.675 0 0 0 347.125 57.3 Q 347.025 56.6 346.975 55.9 Q 346.925 55.2 346.925 54.5 Q 346.925 54.1 346.825 53.9 A 38.755 38.755 0 0 1 346.729 51.691 A 34.539 34.539 0 0 1 346.725 51.2 Q 346.725 49.9 346.625 48.6 L 346.625 47 A 11.387 11.387 0 0 1 346.664 46.039 A 9.462 9.462 0 0 1 346.725 45.5 L 347.025 41.9 A 3.135 3.135 0 0 1 347.04 41.583 A 2.454 2.454 0 0 1 347.075 41.35 A 2.842 2.842 0 0 0 347.109 41.141 Q 347.125 41.012 347.125 40.9 Q 347.225 39.6 347.375 38.4 Q 347.525 37.2 347.825 36 A 1.301 1.301 0 0 0 347.958 35.747 A 0.959 0.959 0 0 0 348.025 35.4 L 348.025 34.8 Q 348.325 33.7 348.575 32.55 Q 348.825 31.4 349.025 30.2 L 349.625 26.9 Q 349.825 26.1 349.975 25.3 Q 350.125 24.5 350.325 23.7 A 15.045 15.045 0 0 1 351.605 20.191 A 12.758 12.758 0 0 1 353.125 17.9 A 10.333 10.333 0 0 1 354.827 16.009 A 9.01 9.01 0 0 1 355.925 15.2 Q 357.125 14.4 358.375 13.6 Q 359.625 12.8 360.925 12.2 Q 362.325 11.4 363.825 10.8 Q 365.325 10.2 366.925 9.7 Q 367.625 9.5 368.275 9.3 Q 368.925 9.1 369.625 9 A 8.454 8.454 0 0 1 371.682 8.743 A 8.235 8.235 0 0 1 372.025 8.75 Q 373.225 8.8 374.325 9.3 A 9.166 9.166 0 0 1 375.737 9.937 A 7.321 7.321 0 0 1 376.725 10.6 Q 377.225 11 377.775 11.35 Q 378.325 11.7 378.725 12.2 Q 380.825 13.7 381.425 16.3 Q 381.525 16.7 381.625 17.05 A 2.368 2.368 0 0 1 381.692 17.372 Q 381.715 17.536 381.722 17.724 A 4.606 4.606 0 0 1 381.725 17.9 Q 381.825 19.7 381.125 21.3 Q 380.925 21.7 380.675 22.15 A 3.725 3.725 0 0 1 380.193 22.823 A 4.348 4.348 0 0 1 380.025 23 Q 379.525 23.6 379.075 24.25 Q 378.625 24.9 378.125 25.5 Q 377.225 26.5 377.225 28 L 377.225 34.2 A 5.693 5.693 0 0 1 377.205 34.68 A 4.731 4.731 0 0 1 377.175 34.95 A 4.954 4.954 0 0 0 377.132 35.407 A 5.966 5.966 0 0 0 377.125 35.7 Q 377.025 36.2 377.025 36.75 L 377.025 37.8 A 0.934 0.934 0 0 0 377.032 37.921 Q 377.078 38.272 377.423 38.101 A 0.826 0.826 0 0 0 377.425 38.1 L 377.725 38.1 Q 378.025 38 378.275 38 A 1.077 1.077 0 0 0 378.54 37.968 A 0.913 0.913 0 0 0 378.725 37.9 Q 380.225 37.4 381.725 37.15 Q 383.225 36.9 384.825 36.8 A 11.076 11.076 0 0 1 386.392 36.686 A 9.874 9.874 0 0 1 387.525 36.75 Q 388.825 36.9 390.125 37.2 Q 391.025 37.5 391.875 37.85 Q 392.725 38.2 393.425 38.8 Q 393.925 39.2 394.425 39.65 A 4.608 4.608 0 0 1 394.924 40.172 A 3.719 3.719 0 0 1 395.225 40.6 Q 395.925 41.6 396.375 42.65 Q 396.825 43.7 396.825 44.8 L 396.825 44.9 Q 397.025 45.9 397.025 46.9 Q 397.025 47.9 396.825 48.9 Q 396.725 49.5 396.625 50.05 Q 396.525 50.6 396.425 51.2 Q 396.225 52.1 395.975 53 Q 395.725 53.9 395.525 54.8 A 8.239 8.239 0 0 0 395.428 55.234 A 6.538 6.538 0 0 0 395.375 55.55 A 4.954 4.954 0 0 0 395.332 56.007 A 5.966 5.966 0 0 0 395.325 56.3 L 395.325 62.1 Q 395.325 62.9 395.425 63.7 L 395.625 65.3 Q 395.725 65.8 395.875 66.3 Q 396.025 66.8 396.125 67.3 A 0.314 0.314 0 0 0 396.152 67.418 Q 396.222 67.587 396.47 67.844 A 4.17 4.17 0 0 0 396.525 67.9 A 2.352 2.352 0 0 1 396.893 68.369 A 1.83 1.83 0 0 1 397.125 69 A 1.412 1.412 0 0 0 397.13 69.13 Q 397.142 69.257 397.179 69.334 A 0.241 0.241 0 0 0 397.225 69.4 A 4.51 4.51 0 0 1 397.548 70.507 A 6.143 6.143 0 0 1 397.625 71.5 Q 397.625 71.9 397.575 72.3 Q 397.525 72.7 397.625 73.2 Q 397.825 73.8 397.325 74.3 A 1.204 1.204 0 0 0 397.077 74.665 A 1.478 1.478 0 0 0 397.025 74.8 A 2.358 2.358 0 0 1 396.851 75.194 A 2.891 2.891 0 0 1 396.725 75.4 Q 396.425 76 395.925 76.5 A 0.915 0.915 0 0 0 395.524 76.77 A 1.208 1.208 0 0 0 395.425 76.9 A 4.019 4.019 0 0 1 395.25 77.143 Q 395.155 77.265 395.06 77.364 A 2.339 2.339 0 0 1 395.025 77.4 Q 394.281 78.237 393.278 78.036 A 2.282 2.282 0 0 1 393.125 78 Q 393.025 78 392.875 77.95 A 1.304 1.304 0 0 0 392.786 77.924 Q 392.741 77.912 392.701 77.906 A 0.519 0.519 0 0 0 392.625 77.9 Q 391.725 77.8 391.075 77.35 A 8.957 8.957 0 0 1 389.976 76.448 A 10.027 10.027 0 0 1 389.825 76.3 Q 389.625 76 389.375 75.65 Q 389.125 75.3 388.825 75 Q 388.525 74.6 388.375 74.1 A 6.235 6.235 0 0 0 388.19 73.569 A 4.941 4.941 0 0 0 388.025 73.2 Q 387.625 71.8 387.175 70.3 Q 386.725 68.8 386.525 67.3 Q 386.325 65.9 386.025 64.45 Q 385.725 63 385.625 61.5 Q 385.468 60.872 385.434 60.367 A 4.008 4.008 0 0 1 385.425 60.1 L 385.225 59.7 A 7.033 7.033 0 0 0 385.064 59.783 Q 384.847 59.898 384.757 59.972 A 0.411 0.411 0 0 0 384.725 60 A 28.437 28.437 0 0 1 382.822 62.062 A 31.276 31.276 0 0 1 382.525 62.35 Q 381.325 63.5 380.225 64.7 Q 380.025 65 379.775 65.25 L 379.325 65.7 Q 378.725 66.3 378.125 66.85 Q 377.525 67.4 377.025 68 A 7.271 7.271 0 0 0 376.607 68.337 A 5.679 5.679 0 0 0 376.325 68.6 A 2.668 2.668 0 0 1 375.628 69.098 A 2.842 2.842 0 0 1 375.625 69.1 L 375.225 69.5 L 374.825 69.9 L 374.075 70.65 A 3.938 3.938 0 0 1 373.634 71.028 A 5.051 5.051 0 0 1 373.225 71.3 L 372.825 71.7 A 32.969 32.969 0 0 1 370.425 73.481 A 28.895 28.895 0 0 1 369.625 74 Q 368.14 74.786 367.952 76.412 A 4.254 4.254 0 0 0 367.925 76.9 L 367.925 78.1 Q 367.925 78.7 368.025 79.3 A 0.3 0.3 0 0 0 368.027 79.333 Q 368.03 79.367 368.043 79.383 A 0.038 0.038 0 0 0 368.075 79.4 Q 368.125 79.4 368.125 79.5 Q 368.225 81.4 368.375 83.35 Q 368.525 85.3 368.425 87.3 A 1.634 1.634 0 0 0 368.368 87.53 Q 368.325 87.772 368.325 88.1 A 2.482 2.482 0 0 1 367.471 89.484 A 3.198 3.198 0 0 1 367.325 89.6 Q 365.874 90.507 364.916 89.193 A 3.574 3.574 0 0 1 364.725 88.9 Q 364.445 88.48 364.361 88.108 A 1.397 1.397 0 0 1 364.325 87.8 Z M 66.325 81 L 66.025 79.9 Q 65.925 79.4 65.925 78.9 Q 65.925 78.4 65.825 77.9 A 8.239 8.239 0 0 1 65.728 77.466 A 6.538 6.538 0 0 1 65.675 77.15 Q 65.625 76.8 65.425 76.5 L 65.025 75.7 L 64.625 74.9 Q 63.818 73.14 63.818 71.488 A 6.625 6.625 0 0 1 63.925 70.3 L 63.925 69.8 Q 64.025 68.6 64.125 67.45 Q 64.225 66.3 64.325 65.1 Q 64.325 64.7 64.375 64.3 Q 64.425 63.9 64.425 63.5 Q 64.425 63.2 64.475 62.9 A 4.666 4.666 0 0 0 64.503 62.706 Q 64.514 62.618 64.52 62.542 A 2.029 2.029 0 0 0 64.525 62.4 Q 64.525 61.9 64.575 61.3 Q 64.625 60.7 64.625 60.2 L 64.625 59.6 Q 64.525 58 64.525 56.45 L 64.525 53.3 L 64.525 52.25 A 5.459 5.459 0 0 0 64.459 51.389 A 4.903 4.903 0 0 0 64.425 51.2 A 0.746 0.746 0 0 1 64.372 51.055 Q 64.325 50.875 64.325 50.6 A 6.646 6.646 0 0 0 64.384 49.993 Q 64.392 49.85 64.392 49.711 A 4.95 4.95 0 0 0 64.375 49.3 Q 64.325 48.7 64.325 48.1 L 64.325 47.35 A 2.157 2.157 0 0 1 64.368 46.912 A 1.865 1.865 0 0 1 64.425 46.7 Q 64.525 45.7 64.425 44.8 L 64.225 42.4 A 24.51 24.51 0 0 0 63.996 40.516 A 21.942 21.942 0 0 0 63.925 40.1 Q 63.725 38.4 63.575 36.7 Q 63.425 35 63.525 33.3 L 63.525 30.3 Q 63.525 29.8 63.575 29.3 A 10.922 10.922 0 0 0 63.611 28.853 Q 63.623 28.643 63.625 28.454 A 6.563 6.563 0 0 0 63.625 28.4 L 63.625 27.6 A 8.772 8.772 0 0 1 63.558 26.511 A 9.554 9.554 0 0 1 63.575 25.95 A 33.475 33.475 0 0 1 63.701 24.424 A 36.707 36.707 0 0 1 63.725 24.2 L 63.725 23.1 Q 63.725 21.7 63.775 20.3 Q 63.825 18.9 63.825 17.6 L 63.825 16.05 Q 63.825 15.3 63.625 14.6 Q 63.553 13.737 63.688 12.772 A 10.822 10.822 0 0 1 63.825 12 A 10.377 10.377 0 0 1 64.475 10.588 A 9.566 9.566 0 0 1 64.525 10.5 Q 64.925 9.8 65.425 9.2 A 5.825 5.825 0 0 1 69.679 7.113 A 7.67 7.67 0 0 1 70.125 7.1 Q 71.025 7.2 71.875 7.45 Q 72.725 7.7 73.425 8.3 Q 73.625 8.4 74.025 8.8 A 7.03 7.03 0 0 0 74.708 9.28 A 8.718 8.718 0 0 0 75.175 9.55 Q 75.825 9.9 76.525 10.1 A 15.377 15.377 0 0 1 77.858 10.329 A 17.352 17.352 0 0 1 78.175 10.4 A 122.984 122.984 0 0 1 79.725 10.775 A 112.833 112.833 0 0 1 79.825 10.8 A 1.634 1.634 0 0 0 80.055 10.857 Q 80.297 10.9 80.625 10.9 A 1.353 1.353 0 0 0 80.972 10.858 A 0.985 0.985 0 0 0 81.425 10.6 Q 81.625 10.4 81.875 10.25 Q 82.125 10.1 82.425 10 A 3.145 3.145 0 0 1 82.921 9.763 Q 83.835 9.426 84.625 9.9 A 2.838 2.838 0 0 1 85.063 10.087 A 2.529 2.529 0 0 1 85.175 10.15 A 8.456 8.456 0 0 0 85.384 10.272 Q 85.48 10.326 85.568 10.371 A 4.761 4.761 0 0 0 85.625 10.4 Q 86.571 10.83 87.147 11.408 A 3.477 3.477 0 0 1 87.325 11.6 A 2.395 2.395 0 0 0 88.594 12.392 A 2.934 2.934 0 0 0 88.625 12.4 Q 89.09 12.493 89.425 12.672 A 2.059 2.059 0 0 1 89.475 12.7 A 2.708 2.708 0 0 1 89.768 12.896 Q 89.905 13 90.049 13.132 A 5.429 5.429 0 0 1 90.225 13.3 Q 90.625 13.6 91.075 13.8 A 21.503 21.503 0 0 1 91.715 14.097 A 18.591 18.591 0 0 1 91.925 14.2 A 1.654 1.654 0 0 1 92.987 14.778 A 2.455 2.455 0 0 1 93.225 15.1 A 2.134 2.134 0 0 0 94.468 16.18 A 2.801 2.801 0 0 0 94.525 16.2 A 1.549 1.549 0 0 1 94.992 16.381 Q 95.175 16.486 95.358 16.644 A 3.2 3.2 0 0 1 95.525 16.8 Q 95.722 17.095 96.5 17.488 A 8.777 8.777 0 0 0 96.525 17.5 Q 97.025 17.6 97.375 17.95 A 3.938 3.938 0 0 1 97.753 18.391 A 5.051 5.051 0 0 1 98.025 18.8 L 98.225 19.1 Q 98.905 20.558 100.435 21.826 A 11.626 11.626 0 0 0 100.525 21.9 Q 101.125 22.4 101.625 23.05 Q 102.125 23.7 102.325 24.5 A 9.669 9.669 0 0 0 102.775 25.299 A 5.258 5.258 0 0 1 103.068 25.839 A 6.425 6.425 0 0 1 103.225 26.2 A 2.74 2.74 0 0 1 103.427 26.556 A 2.253 2.253 0 0 1 103.525 26.8 Q 103.611 27.058 103.697 27.389 A 13.333 13.333 0 0 1 103.725 27.5 Q 103.825 27.9 103.925 28.2 Q 104.025 28.5 104.125 28.9 A 0.952 0.952 0 0 1 104.22 29.236 A 1.169 1.169 0 0 1 104.225 29.35 A 1.077 1.077 0 0 0 104.257 29.615 A 0.913 0.913 0 0 0 104.325 29.8 A 16.427 16.427 0 0 1 104.756 31.95 A 18.025 18.025 0 0 1 104.775 32.1 Q 104.925 33.3 105.025 34.5 A 6.592 6.592 0 0 1 105.092 35.433 A 6.548 6.548 0 0 1 105.075 35.9 A 19.61 19.61 0 0 0 105.032 36.814 A 23.845 23.845 0 0 0 105.025 37.4 A 11.163 11.163 0 0 1 104.998 38.161 A 12.957 12.957 0 0 1 104.975 38.45 Q 104.925 39 104.825 39.5 Q 104.825 39.72 104.717 39.994 A 2.536 2.536 0 0 1 104.625 40.2 Q 103.725 42.9 101.725 45 A 19.648 19.648 0 0 0 101.025 45.738 A 21.574 21.574 0 0 0 100.925 45.85 A 20.113 20.113 0 0 1 100.225 46.599 A 18.317 18.317 0 0 1 100.125 46.7 A 18.544 18.544 0 0 1 99.225 47.544 A 16.377 16.377 0 0 1 98.925 47.8 L 97.725 48.8 L 97.425 49.1 L 95.825 49.9 Q 95.025 50.3 94.125 50.5 A 1.412 1.412 0 0 0 93.995 50.505 Q 93.868 50.517 93.791 50.554 A 0.241 0.241 0 0 0 93.725 50.6 Q 93.025 51 92.175 51 Q 91.325 51 90.525 50.9 A 8.239 8.239 0 0 0 90.091 50.803 A 6.538 6.538 0 0 0 89.775 50.75 A 4.954 4.954 0 0 0 89.318 50.707 A 5.966 5.966 0 0 0 89.025 50.7 A 30.778 30.778 0 0 0 86.979 50.766 A 27.442 27.442 0 0 0 86.525 50.8 A 35.093 35.093 0 0 0 84.669 51.006 A 40.047 40.047 0 0 0 84.025 51.1 L 79.425 51.8 A 4.142 4.142 0 0 0 79.072 51.816 A 5.3 5.3 0 0 0 78.775 51.85 A 6.733 6.733 0 0 0 78.365 51.922 A 8.476 8.476 0 0 0 78.025 52 A 16.267 16.267 0 0 0 76.756 52.231 A 14.93 14.93 0 0 0 76.675 52.25 Q 76.025 52.4 75.325 52.3 A 0.315 0.315 0 0 0 75.187 52.328 Q 75.054 52.392 75.03 52.603 A 0.875 0.875 0 0 0 75.025 52.7 L 75.025 54.4 Q 74.825 55.5 75.025 56.6 A 2.972 2.972 0 0 1 75.074 56.88 Q 75.16 57.581 74.825 58 Q 74.548 58.647 74.698 59.381 A 2.867 2.867 0 0 0 74.725 59.5 Q 74.925 60.4 75.075 61.35 Q 75.225 62.3 75.425 63.2 Q 75.525 63.7 75.575 64.2 Q 75.625 64.7 75.625 65.2 Q 75.825 67.3 76.225 69.4 A 5.552 5.552 0 0 1 76.41 70.095 A 4.533 4.533 0 0 1 76.475 70.55 A 15.023 15.023 0 0 0 76.577 71.394 A 17.357 17.357 0 0 0 76.625 71.7 A 7.958 7.958 0 0 1 76.615 72.108 Q 76.594 72.525 76.525 72.8 A 3.525 3.525 0 0 0 76.411 73.236 A 4.18 4.18 0 0 0 76.375 73.45 Q 76.325 73.8 76.125 74.1 L 75.825 74.8 Q 75.691 74.934 75.556 75.159 A 3.652 3.652 0 0 0 75.425 75.4 A 2.592 2.592 0 0 1 74.738 76.244 Q 74.45 76.481 74.075 76.674 A 4.593 4.593 0 0 1 74.025 76.7 Q 73.025 77.117 72.164 77.117 A 3.404 3.404 0 0 1 71.825 77.1 A 3.956 3.956 0 0 0 71.594 77.106 Q 71.373 77.119 71.234 77.159 A 0.63 0.63 0 0 0 71.125 77.2 A 0.938 0.938 0 0 0 70.906 77.223 Q 70.601 77.297 70.525 77.6 Q 70.448 77.753 70.372 77.965 A 5.681 5.681 0 0 0 70.325 78.1 Q 70.248 78.33 70.172 78.501 A 2.566 2.566 0 0 1 70.125 78.6 A 7.195 7.195 0 0 1 70.105 79.12 A 8.664 8.664 0 0 1 70.075 79.45 A 8.865 8.865 0 0 1 70.074 79.457 Q 70.043 79.736 69.992 80.035 A 12.425 12.425 0 0 1 69.925 80.4 A 2.285 2.285 0 0 1 69.566 81.361 A 3.271 3.271 0 0 1 69.125 81.9 A 1.503 1.503 0 0 1 68.799 82.151 Q 68.398 82.376 67.922 82.261 A 1.699 1.699 0 0 1 67.725 82.2 A 2.421 2.421 0 0 1 66.422 81.163 A 3.165 3.165 0 0 1 66.325 81 Z M 329.125 71.1 L 329.125 70.1 A 11.163 11.163 0 0 0 329.098 69.339 A 12.957 12.957 0 0 0 329.075 69.05 Q 329.025 68.5 328.925 68 A 20.87 20.87 0 0 1 328.663 66.798 A 24.279 24.279 0 0 1 328.575 66.3 A 22.731 22.731 0 0 0 328.334 65.058 A 19.519 19.519 0 0 0 328.225 64.6 A 1.906 1.906 0 0 0 328.214 64.402 Q 328.202 64.283 328.175 64.15 A 2.842 2.842 0 0 1 328.141 63.941 Q 328.125 63.813 328.125 63.7 A 27.781 27.781 0 0 0 327.837 61.522 A 30.23 30.23 0 0 0 327.825 61.45 Q 327.625 60.3 327.425 59.2 Q 327.125 57.2 326.775 55.25 Q 326.425 53.3 326.125 51.4 L 325.525 48.1 Q 325.431 47.351 324.987 46.514 A 6.858 6.858 0 0 0 324.925 46.4 A 9.33 9.33 0 0 1 324.069 44.182 A 10.45 10.45 0 0 1 324.025 44 Q 323.925 43.4 323.725 42.85 Q 323.525 42.3 323.325 41.7 L 322.725 39.7 Q 322.425 38.7 322.225 37.7 Q 322.125 36.9 321.925 36.1 L 321.525 34.5 L 320.925 31.8 Q 320.925 31.666 320.88 31.577 A 0.296 0.296 0 0 0 320.825 31.5 A 21.683 21.683 0 0 0 320.427 28.661 A 22.509 22.509 0 0 0 320.425 28.65 Q 320.125 27.2 319.825 25.8 Q 319.756 25.25 319.664 24.535 A 538.619 538.619 0 0 0 319.575 23.85 A 12.297 12.297 0 0 1 319.52 23.355 Q 319.448 22.542 319.525 22 L 319.525 21 Q 319.725 19.6 320.425 18.4 Q 321.225 17 323.025 16.2 A 5.715 5.715 0 0 1 323.994 15.906 A 5.316 5.316 0 0 1 324.025 15.9 Q 324.525 15.8 324.925 15.7 A 5.343 5.343 0 0 1 325.409 15.678 A 4.857 4.857 0 0 1 327.025 15.95 Q 328.025 16.3 329.025 16.9 Q 329.325 17.1 329.525 17.4 Q 329.825 17.9 330.175 18.4 Q 330.525 18.9 330.625 19.5 Q 330.825 20.1 331.075 20.7 A 8.904 8.904 0 0 0 331.442 21.478 A 7.57 7.57 0 0 0 331.625 21.8 Q 332.125 22.8 332.325 23.9 L 332.725 26.1 A 15.589 15.589 0 0 1 333.001 28.36 A 18.346 18.346 0 0 1 333.025 29.3 L 333.025 29.8 A 10.096 10.096 0 0 1 333.22 31.452 A 9.141 9.141 0 0 1 333.225 31.75 L 333.225 33.7 Q 333.325 35.3 333.525 36.85 Q 333.725 38.4 333.925 40.1 L 334.525 44.8 L 334.525 45 Q 334.725 46.1 334.975 47.25 Q 335.225 48.4 335.325 49.5 Q 335.625 51.2 335.975 52.95 Q 336.325 54.7 336.525 56.4 L 337.125 60.6 Q 337.325 61.6 337.475 62.6 Q 337.625 63.6 337.825 64.6 A 48.863 48.863 0 0 1 338.156 66.431 A 44.756 44.756 0 0 1 338.175 66.55 A 48.329 48.329 0 0 0 338.5 68.375 A 52.774 52.774 0 0 0 338.525 68.5 A 8.239 8.239 0 0 1 338.622 68.934 A 6.538 6.538 0 0 1 338.675 69.25 A 4.954 4.954 0 0 1 338.718 69.707 A 5.966 5.966 0 0 1 338.725 70 A 6.411 6.411 0 0 1 338.739 70.427 A 6.22 6.22 0 0 1 338.225 72.9 A 1.373 1.373 0 0 1 338.067 73.272 Q 337.939 73.486 337.725 73.7 Q 337.402 74.184 337.144 74.408 A 1.194 1.194 0 0 1 337.025 74.5 A 6.251 6.251 0 0 0 336.256 75.425 A 5.078 5.078 0 0 0 335.825 76.2 Q 335.825 76.297 335.685 76.487 A 2.008 2.008 0 0 1 335.675 76.5 A 3.503 3.503 0 0 1 335.468 76.75 A 4.218 4.218 0 0 1 335.325 76.9 Q 334.925 77.3 334.225 77.3 Q 334.125 77.3 333.975 77.25 Q 333.834 77.203 333.65 77.2 A 1.564 1.564 0 0 0 333.625 77.2 A 1.267 1.267 0 0 1 333.209 77.135 Q 332.859 77.014 332.661 76.667 A 1.374 1.374 0 0 1 332.625 76.6 Q 332.252 75.946 331.878 75.467 A 6.722 6.722 0 0 0 331.825 75.4 A 11.704 11.704 0 0 0 331.184 74.666 A 13.59 13.59 0 0 0 330.925 74.4 Q 330.425 73.9 330.075 73.3 Q 329.725 72.7 329.425 72.1 A 2.227 2.227 0 0 1 329.21 71.631 A 1.741 1.741 0 0 1 329.125 71.1 Z M 370.125 54.2 L 369.825 52.3 Q 369.825 51.324 369.098 50.282 A 6.575 6.575 0 0 0 368.725 49.8 Q 368.572 49.647 368.389 49.435 A 10.781 10.781 0 0 1 368.275 49.3 Q 368.025 49 367.825 48.7 Q 367.425 48.1 367.175 47.4 Q 366.925 46.7 366.725 46 L 366.625 45.3 Q 366.725 43.4 368.025 42 A 8.825 8.825 0 0 1 369.401 40.732 A 6.297 6.297 0 0 1 371.525 39.7 L 372.525 39.4 Q 373.116 39.203 372.931 38.716 A 0.896 0.896 0 0 0 372.925 38.7 Q 372.825 38.2 372.725 37.65 Q 372.625 37.1 372.525 36.6 A 41.611 41.611 0 0 1 372.377 34.68 A 39.048 39.048 0 0 1 372.375 34.65 Q 372.325 33.7 372.125 32.7 L 372.125 32.2 Q 372.025 31.1 371.875 29.95 Q 371.725 28.8 371.525 27.6 Q 371.325 26.6 370.725 26 A 2.949 2.949 0 0 0 370.042 25.482 A 2.319 2.319 0 0 0 368.925 25.2 Q 368.145 25.373 367.741 25.622 A 1.508 1.508 0 0 0 367.625 25.7 Q 366.625 26.4 365.725 27.05 A 11.324 11.324 0 0 1 364.139 28.003 A 12.945 12.945 0 0 1 363.725 28.2 Q 363.193 28.504 362.892 28.866 A 1.875 1.875 0 0 0 362.725 29.1 Q 362.425 29.8 362.075 30.45 A 5.948 5.948 0 0 0 361.649 31.462 A 7.079 7.079 0 0 0 361.525 31.9 A 6.696 6.696 0 0 1 361.361 32.545 A 8.239 8.239 0 0 1 361.225 32.95 Q 361.025 33.5 360.825 34 A 0.851 0.851 0 0 1 360.766 34.306 A 1.045 1.045 0 0 1 360.725 34.4 L 360.525 34.8 Q 360.225 35.5 360.025 36.1 L 359.625 37.5 Q 359.425 38.2 359.225 39 Q 359.025 39.7 358.825 40.7 L 358.425 42.7 L 358.025 44.7 A 8.239 8.239 0 0 0 357.928 45.134 A 6.538 6.538 0 0 0 357.875 45.45 Q 357.825 45.8 357.825 46.3 L 357.825 47.2 Q 357.825 47.7 357.625 48.2 A 4.142 4.142 0 0 1 357.609 48.553 A 5.3 5.3 0 0 1 357.575 48.85 Q 357.525 49.2 357.525 49.5 Q 357.525 49.8 357.575 50.1 A 2.974 2.974 0 0 1 357.601 50.307 Q 357.625 50.556 357.625 50.9 A 4.948 4.948 0 0 0 357.582 51.356 Q 357.564 51.723 357.591 52.146 A 9.622 9.622 0 0 0 357.625 52.55 A 322.116 322.116 0 0 0 357.825 54.398 L 357.825 54.4 L 358.025 55.2 A 11.376 11.376 0 0 0 358.314 55.97 A 13.699 13.699 0 0 0 358.525 56.45 A 5.897 5.897 0 0 0 358.962 57.239 A 5.004 5.004 0 0 0 359.225 57.6 A 19.232 19.232 0 0 0 360.081 58.486 Q 360.484 58.876 360.87 59.195 A 10.851 10.851 0 0 0 361.125 59.4 Q 362.025 60.1 362.375 60.25 A 1.094 1.094 0 0 0 362.569 60.308 Q 362.917 60.385 363.624 60.397 A 16.631 16.631 0 0 0 363.925 60.4 A 5.66 5.66 0 0 1 365.718 60.698 A 6.028 6.028 0 0 1 365.725 60.7 A 1.889 1.889 0 0 1 365.995 60.792 Q 366.313 60.925 366.725 61.2 A 4.186 4.186 0 0 0 367.598 61.526 Q 368.721 61.802 369.804 61.318 A 4.261 4.261 0 0 0 370.225 61.1 A 4.09 4.09 0 0 1 370.386 60.947 Q 370.539 60.81 370.661 60.736 A 0.894 0.894 0 0 1 370.725 60.7 Q 371.525 60.1 372.225 59.45 Q 372.925 58.8 373.625 58.2 Q 374.325 57.6 374.925 56.95 Q 375.525 56.3 376.225 55.7 A 39.297 39.297 0 0 0 377.625 54.223 A 43.148 43.148 0 0 0 377.825 54 Q 378.625 53.1 379.325 52.2 Q 379.825 51.6 380.125 50.9 A 2.355 2.355 0 0 0 380.577 49.955 A 2.898 2.898 0 0 0 380.625 49.7 A 1.208 1.208 0 0 0 380.611 49.508 Q 380.538 49.058 380.083 49.182 A 1.089 1.089 0 0 0 380.025 49.2 L 379.025 49.4 Q 378.525 49.5 378.025 49.9 A 40.746 40.746 0 0 1 376.816 50.675 A 44.367 44.367 0 0 1 376.775 50.7 A 22.168 22.168 0 0 0 375.943 51.239 A 26.507 26.507 0 0 0 375.425 51.6 Q 375.291 51.734 375.156 51.959 A 3.652 3.652 0 0 0 375.025 52.2 Q 374.825 52.9 374.625 53.9 A 17.337 17.337 0 0 1 374.609 54.656 A 13.821 13.821 0 0 1 374.575 55.2 Q 374.525 55.8 374.425 56.4 A 3.245 3.245 0 0 1 374.176 57.143 A 2.012 2.012 0 0 1 373.025 58.2 A 1.742 1.742 0 0 1 372.771 58.288 Q 372.232 58.425 371.825 58.1 A 2.39 2.39 0 0 1 371.135 57.519 A 2.238 2.238 0 0 1 370.825 57 L 370.425 55.6 Q 370.225 54.9 370.125 54.2 Z M 185.025 51.5 L 187.025 49.4 Q 187.425 49 187.725 48.55 Q 188.025 48.1 188.325 47.7 A 2.924 2.924 0 0 0 188.907 45.941 Q 188.907 45.652 188.854 45.348 A 3.934 3.934 0 0 0 188.825 45.2 A 13.943 13.943 0 0 0 187.694 41.249 A 13.187 13.187 0 0 0 187.625 41.1 Q 187.325 40.2 186.925 39.35 Q 186.525 38.5 186.125 37.7 A 9.975 9.975 0 0 1 185.944 37.419 Q 185.7 37.025 185.625 36.8 A 2.668 2.668 0 0 1 185.127 36.103 A 2.842 2.842 0 0 1 185.125 36.1 Q 184.525 35.2 183.825 34.5 L 183.375 34.05 Q 183.125 33.8 182.925 33.5 Q 182.525 32.9 182.175 32.3 Q 181.825 31.7 181.325 31.2 Q 180.717 30.245 180.411 29.931 A 1.151 1.151 0 0 0 180.325 29.85 A 3.574 3.574 0 0 0 180.155 29.719 Q 179.784 29.447 178.925 28.9 A 11.491 11.491 0 0 1 177.856 28.198 A 8.422 8.422 0 0 1 176.925 27.4 L 176.325 26.8 A 48.721 48.721 0 0 0 175.003 25.806 A 42.428 42.428 0 0 0 174.575 25.5 A 45.487 45.487 0 0 1 173.272 24.544 A 52.131 52.131 0 0 1 172.825 24.2 A 22.152 22.152 0 0 0 171.075 23.09 A 20.059 20.059 0 0 0 170.825 22.95 Q 169.825 22.4 168.725 21.8 Q 168.425 21.6 168.025 21.5 L 167.225 21.3 A 0.835 0.835 0 0 0 167.09 21.277 Q 166.827 21.256 166.611 21.424 A 0.92 0.92 0 0 0 166.525 21.5 L 166.325 22 A 1.34 1.34 0 0 0 166.231 22.264 Q 166.159 22.542 166.136 22.967 A 8.046 8.046 0 0 0 166.125 23.4 L 166.425 26.1 Q 166.625 27.2 166.875 28.3 Q 167.125 29.4 167.325 30.5 L 167.325 30.9 A 19.451 19.451 0 0 1 167.584 32.591 A 21.948 21.948 0 0 1 167.625 33 Q 167.725 34.1 167.925 35.2 Q 168.125 36.1 168.225 37 L 168.425 38.8 Q 168.525 39.6 168.675 40.35 Q 168.825 41.1 168.925 41.9 Q 169.225 43.6 169.475 45.25 Q 169.725 46.9 169.925 48.6 L 170.225 51.1 A 3.473 3.473 0 0 1 170.304 51.523 A 2.713 2.713 0 0 1 170.325 51.85 A 2.157 2.157 0 0 0 170.368 52.288 A 1.865 1.865 0 0 0 170.425 52.5 L 170.425 53.3 Q 170.625 54.4 170.775 55.55 Q 170.925 56.7 171.025 57.9 A 0.746 0.746 0 0 1 171.078 58.045 Q 171.125 58.225 171.125 58.5 A 8.219 8.219 0 0 0 171.092 59.244 Q 171.092 59.9 171.192 60.588 A 10.422 10.422 0 0 0 171.225 60.8 A 14.679 14.679 0 0 1 171.405 62.403 A 12.64 12.64 0 0 1 171.425 63.1 L 171.425 63.4 Q 171.425 63.49 171.548 63.581 A 0.707 0.707 0 0 0 171.575 63.6 A 0.384 0.384 0 0 0 171.621 63.626 Q 171.728 63.678 171.807 63.616 A 0.206 0.206 0 0 0 171.825 63.6 Q 172.025 63.6 172.225 63.4 A 6.84 6.84 0 0 0 173.037 63.009 A 7.737 7.737 0 0 0 173.225 62.9 Q 173.725 62.6 174.125 62.3 A 4.939 4.939 0 0 0 174.792 61.892 Q 175.291 61.534 175.825 61 Q 176.925 59.8 178.125 58.65 Q 179.325 57.5 180.425 56.3 A 144.228 144.228 0 0 1 182.427 54.162 A 158.274 158.274 0 0 1 182.725 53.85 Q 183.925 52.6 185.025 51.5 Z M 90.025 41.3 L 91.525 41.3 A 2.822 2.822 0 0 0 92.51 41.045 A 2.522 2.522 0 0 0 93.425 40.3 L 94.225 39.4 Q 94.625 38.9 94.975 38.35 A 3.06 3.06 0 0 0 95.392 37.294 A 3.602 3.602 0 0 0 95.425 37.1 A 9.069 9.069 0 0 0 95.499 36.262 Q 95.528 35.527 95.422 34.872 A 5.723 5.723 0 0 0 95.325 34.4 Q 95.025 33.2 94.625 32.05 Q 94.225 30.9 93.625 29.9 Q 93.025 28.6 91.825 27.9 A 0.765 0.765 0 0 1 91.399 27.613 Q 91.298 27.484 91.225 27.3 A 1.75 1.75 0 0 0 90.955 26.782 A 1.53 1.53 0 0 0 90.525 26.4 L 90.325 26.2 A 0.731 0.731 0 0 0 90.244 26.131 Q 90.156 26.066 90.025 26 Q 89.625 25.6 88.925 25.6 A 2.425 2.425 0 0 1 88.433 25.547 A 3.157 3.157 0 0 1 88.075 25.45 Q 87.625 25.3 87.225 25.2 A 16.11 16.11 0 0 1 86.699 24.925 A 13.775 13.775 0 0 1 86.475 24.8 A 11.705 11.705 0 0 1 86.017 24.525 A 9.892 9.892 0 0 1 85.825 24.4 Q 84.825 23.8 83.625 23.8 A 6.396 6.396 0 0 1 82.691 23.727 Q 82.247 23.662 81.764 23.537 A 10.733 10.733 0 0 1 81.625 23.5 A 5.247 5.247 0 0 0 80.138 22.84 A 4.745 4.745 0 0 0 79.325 22.7 Q 79.172 22.7 78.9 22.582 A 3.598 3.598 0 0 1 78.725 22.5 L 77.925 22.2 Q 77.325 21.9 76.925 21.9 Q 75.889 21.581 75.298 22.342 A 2.344 2.344 0 0 0 75.025 22.8 Q 74.925 23.1 74.825 23.45 Q 74.725 23.8 74.625 24.2 L 74.425 25.8 L 74.225 27.4 L 74.025 28.6 Q 73.925 29.2 73.925 29.8 A 22.592 22.592 0 0 0 73.858 31.533 A 22.548 22.548 0 0 0 73.875 32.4 Q 73.925 33.7 74.125 35.1 L 74.125 36.1 Q 74.125 36.8 74.175 37.5 Q 74.225 38.2 74.325 38.9 A 1.634 1.634 0 0 1 74.382 39.13 Q 74.425 39.372 74.425 39.7 L 74.725 42.4 A 0.864 0.864 0 0 0 74.755 42.637 Q 74.859 43 75.325 43 A 3.473 3.473 0 0 0 75.748 43.079 A 2.713 2.713 0 0 0 76.075 43.1 L 76.825 43.1 Q 77.425 43.1 77.975 43.05 A 15.023 15.023 0 0 0 78.819 42.948 A 17.357 17.357 0 0 0 79.125 42.9 Q 79.825 42.7 80.525 42.6 L 81.925 42.4 Q 83.325 42.2 84.625 41.8 Q 85.025 41.7 85.425 41.65 Q 85.825 41.6 86.225 41.6 Q 86.764 41.6 87.065 41.541 A 1.3 1.3 0 0 0 87.225 41.5 A 5.225 5.225 0 0 1 88.101 41.326 A 4.425 4.425 0 0 1 88.575 41.3 L 90.025 41.3 Z M 286.225 25.4 L 286.225 26.7 A 5.649 5.649 0 0 0 286.438 28.197 Q 286.638 28.925 287.025 29.7 A 11.588 11.588 0 0 0 288.002 31.387 A 15.285 15.285 0 0 0 289.025 32.7 Q 289.325 33.1 289.625 33.45 Q 289.905 33.777 290.185 34.234 A 8.618 8.618 0 0 1 290.225 34.3 Q 291.125 35.5 292.275 36.4 Q 293.425 37.3 294.725 38.1 L 296.225 38.9 A 1.769 1.769 0 0 0 296.319 38.944 Q 296.41 38.983 296.473 38.995 A 0.282 0.282 0 0 0 296.525 39 Q 296.608 39 296.691 39.069 A 0.497 0.497 0 0 1 296.725 39.1 Q 296.959 39.1 297.09 38.998 A 0.406 0.406 0 0 0 297.225 38.8 Q 297.325 38.3 297.275 37.8 Q 297.225 37.3 297.125 36.9 Q 297.025 36.4 297.025 35.85 A 5.459 5.459 0 0 0 296.959 34.989 A 4.903 4.903 0 0 0 296.925 34.8 Q 296.925 34.2 296.825 33.6 Q 296.725 33 296.825 32.4 A 0.451 0.451 0 0 0 296.851 32.372 Q 296.892 32.324 296.892 32.289 A 0.053 0.053 0 0 0 296.875 32.25 L 296.825 32.2 A 10.283 10.283 0 0 1 296.744 31.444 A 8.032 8.032 0 0 1 296.725 30.9 L 296.725 29.7 Q 296.725 27.7 295.925 25.8 Q 295.225 24.2 294.475 22.7 Q 293.725 21.2 292.925 19.7 A 6.144 6.144 0 0 0 292.231 18.619 A 6.786 6.786 0 0 0 292.175 18.55 Q 291.725 18 291.225 17.5 A 1.007 1.007 0 0 0 291.064 17.31 Q 290.732 17.01 290.241 17.24 A 1.605 1.605 0 0 0 290.125 17.3 Q 289.537 17.398 288.852 18.073 A 5.473 5.473 0 0 0 288.825 18.1 Q 288.225 18.8 287.725 19.6 Q 287.225 20.4 286.825 21.3 L 286.625 21.9 Q 286.548 22.13 286.472 22.301 A 2.566 2.566 0 0 1 286.425 22.4 A 19.142 19.142 0 0 0 286.288 23.663 A 20.991 20.991 0 0 0 286.275 23.85 A 23.04 23.04 0 0 0 286.226 25.201 A 25.303 25.303 0 0 0 286.225 25.4 Z M 228.225 31.1 L 228.225 31.3 A 8.751 8.751 0 0 0 228.128 31.894 A 11.224 11.224 0 0 0 228.075 32.4 Q 228.025 33 228.025 33.6 L 228.025 35.2 Q 228.186 35.442 228.347 35.489 A 0.277 0.277 0 0 0 228.425 35.5 Q 228.506 35.581 228.719 35.596 A 1.484 1.484 0 0 0 228.825 35.6 A 0.864 0.864 0 0 0 229.032 35.46 A 0.603 0.603 0 0 0 229.225 35 A 0.952 0.952 0 0 1 229.13 34.664 A 1.169 1.169 0 0 1 229.125 34.55 A 1.077 1.077 0 0 0 229.093 34.285 A 0.913 0.913 0 0 0 229.025 34.1 A 8.958 8.958 0 0 1 228.72 33.167 Q 228.598 32.703 228.552 32.285 A 4.46 4.46 0 0 1 228.525 31.8 A 1.287 1.287 0 0 0 228.521 31.695 Q 228.511 31.572 228.475 31.5 A 0.482 0.482 0 0 1 228.435 31.388 A 0.408 0.408 0 0 1 228.425 31.3 L 228.225 31.1 Z" vector-effect="non-scaling-stroke"/></g></svg>
