<svg width="58" height="66" viewBox="0 0 58 66" fill="none" xmlns="http://www.w3.org/2000/svg">
<path d="M46.8 0.400024H11.2C5.19999 0.400024 0.299988 5.30002 0.299988 11.3V23.7C0.299988 29.7 5.19999 34.6 11.2 34.6H13.5C14.8 34.6 15.8 35.6 15.8 36.9V54.7C15.8 60.7 20.7 65.6 26.7 65.6H46.9C52.9 65.6 57.8 60.7 57.8 54.7V11.3C57.7 5.30002 52.8 0.400024 46.8 0.400024ZM54.6 54.7C54.6 59 51.1 62.5 46.8 62.5H26.7C22.4 62.5 18.9 59 18.9 54.7V36.9C18.9 33.9 16.5 31.5 13.5 31.5H11.2C6.89999 31.5 3.39999 28 3.39999 23.7V11.3C3.39999 7.00002 6.89999 3.50002 11.2 3.50002H46.9C51.2 3.50002 54.7 7.00002 54.7 11.3V54.7H54.6Z" fill="white"/>
<path d="M36.2 16.7C36.2 17.6 36.9 18.3 37.8 18.3H42.1V42.3H32L34.9 39.4C35.5 38.8 35.5 37.8 34.9 37.2C34.3 36.6 33.3 36.6 32.7 37.2L26.1 43.8L32.8 50.5C33.1 50.8 33.5 51 33.9 51C34.3 51 34.7 50.8 35 50.5C35.6 49.9 35.6 48.9 35 48.3L32.1 45.4H45.1V15.1H37.7C36.9 15.1 36.2 15.8 36.2 16.7Z" fill="white"/>
</svg>
