<svg width="28" height="46" viewBox="0 0 28 46" fill="none" xmlns="http://www.w3.org/2000/svg">
<path d="M24.951 16.1075C24.33 16.1075 23.79 16.2746 23.3655 16.5945C23.245 16.162 23.013 15.7637 22.683 15.4329C22.179 14.9374 21.513 14.6641 20.808 14.6641C20.1625 14.6641 19.57 14.8943 19.1095 15.2757C18.9375 14.6626 18.542 14.1453 18.022 13.7991C19.314 12.383 20.109 10.5126 20.109 8.45668C20.1085 4.05864 16.501 0.480003 12.067 0.480003C7.63253 0.480003 4.02503 4.05864 4.02503 8.45717C4.02503 12.0214 6.39403 15.0455 9.65153 16.0653V24.2935L5.12753 20.009C3.90553 18.9887 2.58603 18.9114 1.50703 19.7962C0.779029 20.3934 0.395528 21.0724 0.366528 21.8145C0.342528 22.4369 0.579028 23.0654 1.05603 23.6377L5.77503 29.1295C6.14803 29.7579 6.46003 30.8084 6.78953 31.92C7.23053 33.406 7.68653 34.9426 8.41053 35.9286C9.69753 37.6805 9.77053 37.9394 10.0785 39.0286C10.139 39.2434 10.208 39.4869 10.2955 39.7766C10.4415 40.2557 10.512 40.714 10.586 41.6336C10.586 42.3563 10.95 43.0264 11.583 43.4708C12.643 44.2237 14.667 45.12 18.288 45.12C21.7375 45.12 23.839 44.3661 24.992 43.7352C25.837 43.2784 26.318 42.4034 26.2125 41.4833C26.122 40.7121 26.0945 39.9482 26.131 39.2112C26.2265 37.1473 26.569 35.5983 27.209 33.2929C27.492 32.2796 27.636 31.2747 27.636 30.305V18.7259C27.6355 17.2086 26.5065 16.1075 24.951 16.1075ZM26.5815 30.3055C26.5815 31.1804 26.4505 32.0916 26.1925 33.0146C25.532 35.3959 25.178 37.0005 25.078 39.1621C25.039 39.9547 25.0685 40.776 25.1685 41.6232C25.223 42.1033 24.9625 42.5606 24.4855 42.8186C23.4385 43.3914 21.5135 44.0744 18.2885 44.0744C14.7705 44.0744 12.9615 43.1638 12.194 42.6192C11.842 42.3722 11.64 42.0131 11.64 41.6237C11.64 41.6103 11.6395 41.5964 11.6385 41.5825C11.5565 40.5479 11.4755 40.0355 11.3055 39.476C11.2205 39.1938 11.153 38.9557 11.0935 38.7464C10.7435 37.5089 10.6095 37.1473 9.26253 35.3131C8.64603 34.4739 8.21603 33.0255 7.80053 31.6248C7.44453 30.4255 7.10853 29.2926 6.65453 28.5521C6.63953 28.5283 6.62303 28.506 6.60503 28.4847L1.86303 22.9657C1.65103 22.7112 1.40203 22.3124 1.41953 21.8551C1.43653 21.4231 1.69153 21.002 2.17853 20.6027C2.32453 20.4827 2.64453 20.2203 3.12603 20.2203C3.47503 20.2203 3.90903 20.3582 4.42403 20.7872L9.81453 25.8941C9.96703 26.0384 10.192 26.0786 10.386 25.9967C10.58 25.9144 10.706 25.7254 10.706 25.5161V8.59258C10.706 8.17048 10.8725 7.7717 11.1715 7.47212C11.477 7.17204 11.8795 7.00637 12.3045 7.00637C13.17 7.00637 13.8705 7.67895 13.9 8.51917V21.2148C13.9 21.5035 14.1395 21.7376 14.4305 21.7376C14.5705 21.7376 14.704 21.6825 14.803 21.5843C14.902 21.4861 14.9575 21.3532 14.9575 21.2143L14.954 15.9805C14.954 15.1061 15.671 14.3943 16.553 14.3943C17.435 14.3943 18.152 15.1056 18.152 15.981L18.155 21.2153C18.155 21.504 18.391 21.7381 18.682 21.7381C18.9735 21.7381 19.209 21.504 19.209 21.2153V17.2974C19.209 16.4229 19.926 15.7117 20.808 15.7117C21.233 15.7117 21.6355 15.8768 21.9375 16.1739C22.24 16.477 22.407 16.8758 22.407 17.2974V21.2153C22.407 21.504 22.643 21.7381 22.934 21.7381C23.225 21.7381 23.461 21.504 23.461 21.2153V18.7264C23.461 18.2542 23.5895 17.8603 23.832 17.587C24.0865 17.2999 24.463 17.1545 24.951 17.1545C25.9415 17.1545 26.5815 17.7716 26.5815 18.7269V30.3055ZM19.0545 8.45717C19.0545 10.3826 18.2575 12.1261 16.975 13.3834C16.837 13.3616 16.6965 13.3482 16.5525 13.3482C15.9525 13.3482 15.3985 13.5471 14.9535 13.8814V8.50132C14.905 7.0768 13.741 5.9608 12.3045 5.9608C11.5995 5.9608 10.9335 6.2336 10.426 6.73258C9.92653 7.23255 9.65153 7.89322 9.65153 8.59258V14.9533C6.98703 13.9747 5.07953 11.4366 5.07953 8.45767C5.07953 4.63549 8.21453 1.52607 12.067 1.52607C15.9195 1.52607 19.0545 4.635 19.0545 8.45717Z" fill="#fff"/>
</svg>
