<svg width="40" height="40" viewBox="0 0 40 40" fill="none" xmlns="http://www.w3.org/2000/svg">
<path d="M20 30.75C9.11 30.75 0.25 25.9275 0.25 20C0.25 14.0725 9.11 9.25 20 9.25C30.89 9.25 39.75 14.0725 39.75 20C39.75 25.9275 30.89 30.75 20 30.75Z" fill="#DCD5F2"/>
<path d="M20 9.5C30.7525 9.5 39.5 14.2105 39.5 20C39.5 25.7895 30.7525 30.5 20 30.5C9.2475 30.5 0.5 25.7895 0.5 20C0.5 14.2105 9.2475 9.5 20 9.5ZM20 9C8.9545 9 0 13.925 0 20C0 26.075 8.9545 31 20 31C31.0455 31 40 26.075 40 20C40 13.925 31.0455 9 20 9Z" fill="#8B75A1"/>
<path d="M12.556 17C13.4185 17 14.163 17.311 14.598 17.853C14.9725 18.32 15.0885 18.9385 14.932 19.6415C14.5115 21.537 13.6975 22 10.785 22H8.715L9.59 17H12.556ZM12.556 16H8.75L7 26H8L8.528 23H10.7855C13.717 23 15.312 22.5475 15.9085 19.858C16.421 17.548 14.718 16 12.556 16ZM30.556 17C31.4185 17 32.163 17.311 32.598 17.853C32.9725 18.32 33.0885 18.9385 32.932 19.6415C32.5115 21.537 31.6975 22 28.785 22H26.715L27.59 17H30.556ZM30.556 16H26.75L25 26H26L26.528 23H28.7855C31.717 23 33.312 22.5475 33.9085 19.858C34.421 17.548 32.718 16 30.556 16Z" fill="#36404D"/>
<path d="M24.536 16.606C24.0965 16.174 23.322 16 22.167 16H19.398L20 13H18.95L17 23H17.995L19.189 17H19.3985H22.1675C23.3365 17 23.7145 17.2 23.835 17.3185C24.0065 17.4875 24.047 17.9315 23.9435 18.5L23.06 23H24.113L24.926 18.685C25.0995 17.731 24.968 17.031 24.536 16.606Z" fill="#36404D"/>
</svg>
