<svg width="48" height="48" viewBox="0 0 48 48" fill="none" xmlns="http://www.w3.org/2000/svg">
<path d="M24 44C35.0457 44 44 35.0457 44 24C44 12.9543 35.0457 4 24 4C12.9543 4 4 12.9543 4 24C4 35.0457 12.9543 44 24 44Z" fill="#216287"/>
<path d="M24 42C33.9411 42 42 33.9411 42 24C42 14.0589 33.9411 6 24 6C14.0589 6 6 14.0589 6 24C6 33.9411 14.0589 42 24 42Z" fill="#E87912"/>
<path d="M29.69 31.95C29.69 36.3 26.6 39.93 22.5 40.77L21.95 40.87C13.53 39.87 7 32.7 7 24C7 14.61 14.61 7 24 7C24.17 7 24.35 7 24.52 7.01C21.02 8.24 18.5 11.57 18.5 15.5C18.5 16.99 18.86 18.4 19.51 19.64C20.37 21.3 21.81 22.58 23.48 23.42L24.7 24.03C26.37 24.87 27.82 26.15 28.68 27.81C29.32 29.05 29.69 30.46 29.69 31.95Z" fill="#216287"/>
<path d="M24 6C14.059 6 6 14.059 6 24C6 32.671 12.132 39.906 20.295 41.614L20.307 41.677L20.466 41.648C21.609 41.876 22.79 42 24 42C33.941 42 42 33.941 42 24C42 14.059 33.941 6 24 6ZM8 24C8 16.065 13.813 9.479 21.4 8.231C19.309 9.994 18 12.626 18 15.5C18 17.019 18.367 18.529 19.062 19.868C19.927 21.536 21.378 22.919 23.259 23.864L24.478 24.477C26.169 25.329 27.469 26.561 28.237 28.041C28.867 29.255 29.186 30.569 29.186 31.948C29.186 35.593 26.836 38.805 23.475 39.972C14.897 39.693 8 32.645 8 24ZM25.905 39.876C28.504 38.155 30.186 35.208 30.186 31.949C30.186 30.429 29.819 28.92 29.124 27.581C28.259 25.913 26.808 24.53 24.927 23.585L23.708 22.972C22.016 22.12 20.717 20.889 19.949 19.408C19.319 18.193 19 16.879 19 15.5C19 12.327 20.781 9.483 23.464 8.027C23.643 8.021 23.819 8 24 8C32.822 8 40 15.178 40 24C40 32.177 33.831 38.93 25.905 39.876Z" fill="white"/>
<path d="M38.458 27.528C37.682 26.601 36.44 25.699 35.649 24.393C35.538 24.209 35.596 23.986 35.784 23.886C36.799 23.342 36.978 23.441 38 23C37 22 35.963 21.64 34.319 21.226C33.997 21.159 33.812 20.889 33.758 20.592C33.67 20.269 33.483 19.722 33.287 19.285C31.866 16.414 30.095 12.66 26.501 12.378C26.264 12.375 26.038 12.279 25.881 12.121C25.428 11.689 24.794 11.154 24.211 11.066C24.096 11.077 24.154 11.038 24.065 11.12C23.832 11.393 23.879 11.403 24.039 11.75C24.255 12.119 24.667 12.541 25.072 12.958C25.483 13.489 25.198 14.266 25.468 14.862C25.579 15.285 25.812 15.785 26.071 16.091C26.196 16.252 26.234 16.456 26.195 16.641C25.907 18.018 25.704 19.503 25.983 20.882C25.989 21.029 26.133 21.084 26.239 21.031C26.272 21.005 26.271 21.023 26.399 20.798C26.556 20.448 27.675 18.307 28 19C28.473 20.538 29.13 23.53 30.522 24.455C30.581 24.48 30.535 24.577 30.477 24.544C29.023 23.793 27.846 21.862 27.499 20.56C27.229 20.583 26.987 20.802 26.851 21.053C26.646 21.772 25.591 21.809 25.402 21.04C25.326 20.742 25.264 20.44 25.235 20.135C25.124 19.025 25.194 17.382 25.446 16.553C24.742 15.793 24.348 14.326 24.441 13.558C24.028 13.14 23.594 12.729 23.271 12.214C22.663 11.44 23.195 10.082 24.238 10.131C25.162 10.208 25.91 10.838 26.568 11.432C27.297 11.367 28.741 11.876 29.55 12.423C31.384 13.614 32.349 15.659 33.397 17.501C33.806 18.337 34.539 19.751 34.52 20.425C36.386 21.003 38.495 21.702 39.559 23.471C39.578 23.506 39.56 23.551 39.521 23.562L36.621 24.472L38.542 27.472C38.575 27.522 38.495 27.584 38.458 27.528Z" fill="white"/>
<path d="M27.046 13.688L27.879 14.877C27.879 14.877 28.83 13.53 27.046 13.688Z" fill="white"/>
<path d="M9.76206 20.071C10.5381 20.998 11.7801 21.9 12.5711 23.206C12.6821 23.39 12.6241 23.613 12.4361 23.713C11.4211 24.256 11.2431 24.157 10.2211 24.599C11.2211 25.599 12.2581 25.959 13.9021 26.373C14.2241 26.44 14.4091 26.71 14.4631 27.007C14.5511 27.33 14.7381 27.877 14.9341 28.314C16.3551 31.185 18.1261 34.939 21.7201 35.221C21.9571 35.224 22.1831 35.32 22.3401 35.478C22.7931 35.91 23.4271 36.445 24.0101 36.533C24.1251 36.522 24.0671 36.561 24.1561 36.479C24.3891 36.206 24.3421 36.196 24.1821 35.849C23.9661 35.48 23.5541 35.058 23.1491 34.641C22.7381 34.11 23.0231 33.333 22.7531 32.737C22.6421 32.314 22.4091 31.814 22.1501 31.508C22.0251 31.347 21.9871 31.143 22.0261 30.958C22.3141 29.581 22.5171 28.096 22.2381 26.717C22.2321 26.57 22.0881 26.515 21.9821 26.568C21.9491 26.594 21.9501 26.576 21.8221 26.801C21.6641 27.149 20.5451 29.291 20.2201 28.597C19.7471 27.059 19.0901 24.067 17.6981 23.142C17.6391 23.117 17.6851 23.02 17.7431 23.053C19.1971 23.804 20.3741 25.735 20.7211 27.037C20.9911 27.014 21.2331 26.795 21.3691 26.544C21.5741 25.825 22.6291 25.788 22.8181 26.557C22.8941 26.855 22.9561 27.157 22.9851 27.462C23.0961 28.572 23.0261 30.215 22.7741 31.044C23.4781 31.804 23.8721 33.271 23.7791 34.039C24.1921 34.457 24.6261 34.868 24.9491 35.383C25.5571 36.157 25.0251 37.515 23.9821 37.466C23.0581 37.389 22.3101 36.759 21.6521 36.165C20.9231 36.23 19.4791 35.721 18.6701 35.174C16.8361 33.983 15.8711 31.938 14.8231 30.096C14.4141 29.26 13.6811 27.846 13.7001 27.172C11.8341 26.594 9.72506 25.895 8.66106 24.126C8.64206 24.091 8.66006 24.046 8.69906 24.035L11.5991 23.125L9.67806 20.125C9.64506 20.077 9.72506 20.016 9.76206 20.071Z" fill="white"/>
<path d="M21.1741 33.911L20.3411 32.722C20.3411 32.722 19.3901 34.07 21.1741 33.911Z" fill="white"/>
</svg>
